<?xml version="1.0" encoding="UTF-8"?>
<svg width="825px" height="175px" viewBox="0 0 825 175" version="1.1" xmlns="http://www.w3.org/2000/svg" xmlns:xlink="http://www.w3.org/1999/xlink">
    <g id="Page-1" stroke="none" fill="none" fill-rule="evenodd">
        <path d="M793.52,101.74 L792.66,101.74 L792.66,95.9 L791.05,95.9 C791.05,95.9 791.05,90.48 791.05,90.07 C791.05,90.65 792.22,89.88 792.41,90.07 C792.6,90.26 792.41,86.77 792.41,86.77 L755.68,86.77 L731.96,60.53 L728.66,60.53 L712.92,86.77 L693.87,87.74 L693.87,43.42 L695.23,43.42 L695.04,38.37 L691.54,38.37 L691.54,31.57 L689.59,31.57 L689.59,37.59 L687.45,37.59 L687.45,31.57 L685.31,31.57 L685.31,37.79 L683.36,37.79 L683.36,31.57 L680.25,31.57 L680.25,37.59 L676.95,37.59 L676.95,42.84 L678.31,42.84 L678.31,88.13 L673.26,88.13 L673.26,103.87 L642.55,103.87 L626.03,75.89 L623.89,75.5 L623.89,64.03 C623.89,64.03 628.16,62.92 624.66,59.39 C621.16,55.87 615.72,54.5 611.44,54.5 C607.16,54.5 599.78,56.89 597.83,59.39 C595.89,61.89 598.81,64.22 598.81,64.22 L598.81,75.5 L579.37,101.55 L573.74,101.55 L573.74,98.44 L571.6,98.44 L571.6,101.35 L563.44,101.35 C563.44,101.35 563.44,92.08 563.44,91.63 C563.44,92.21 565.58,91.63 565.58,91.63 L565.58,89.3 L563.44,89.3 L563.44,64.62 L564.6,64.62 L564.6,62.29 L559.55,51.4 L559.55,37.2 L557.22,37.2 L557.22,54.51 L554.98,56.75 L551.78,56.75 L551.78,59.4 L552.75,59.4 L552.75,68.32 L551.78,68.32 L551.78,70.65 L552.75,70.65 L552.75,98.05 L551.78,98.05 L551.78,100.58 L540.7,100.58 L540.7,97.86 L536.62,97.86 L536.62,104.27 L538.37,104.27 L538.37,109.32 L533.12,109.32 C533.12,109.32 533.12,106.63 533.12,106.21 C533.12,106.79 526.7,106.21 526.7,106.21 L489.18,46.73 L489.18,25.94 L491.9,23.22 C491.9,23.22 493.84,21.66 491.12,19.33 C488.4,17 482.57,13.31 478.1,13.31 C473.63,13.31 467.61,17.39 465.86,18.75 C464.11,20.11 465.86,21.86 465.86,22.24 C465.86,22.63 467.42,25.54 467.42,25.54 L467.42,46.54 L437.88,90.27 L435.84,88.23 L435.84,78.03 L427.19,78.03 L427.19,89.11 L421.56,94.74 L421.56,89.11 L422.72,89.11 L422.72,87.55 L412.4,87.55 L412.4,90.46 L397.05,75.49 L398.51,74.03 L398.51,71.02 L391.41,71.02 L386.26,65.87 L378.78,49.64 L378.78,30.01 L382.47,26.31 C382.47,26.31 383.74,22.13 381.89,20.28 C380.04,18.43 368.1,11.14 359.54,11.14 C350.98,11.14 338.35,19.89 338.35,19.89 C338.35,19.89 336.79,23.77 338.35,25.33 C339.9,26.88 342.04,28.24 342.04,28.24 L342.04,47.87 L335.82,56.62 L332.62,53.42 L332.62,40.68 L327.08,36.4 L327.08,34.65 L329.61,34.65 L326.7,31.74 L322.03,31.74 L322.03,23.18 L320.67,23.18 L320.67,22.01 L324.36,22.01 L324.36,20.26 L319.51,19.1 L312.3,19.1 L312.3,31.93 L302.19,31.93 L302.19,23.77 L300.45,23.77 L300.45,46.7 L298.7,47.87 L298.7,44.96 L297.73,43.6 L295.78,43.6 L295.78,18.92 L257.87,18.92 C257.87,18.92 251.26,0.45 232.6,0.45 C213.94,0.45 208.88,18.53 208.88,18.53 L171.95,18.53 L171.95,23.97 L173.51,23.97 L173.51,49.63 L166.51,49.63 L166.51,108.14 L122.97,88.32 L116.36,80.74 L116.36,71.22 L117.92,71.22 L117.92,68.5 L104.12,68.5 L104.12,70.83 L105.68,70.83 L105.68,79.19 L69.33,120.78 L67.19,120.78 L67.19,116.31 L62.72,116.31 L62.72,120.39 L59.23,123.88 L39.6,115.72 L0.1,50.29 L0.1,174.28 L808.1,174.28 L813.7,174.28 L815.03,174.28 L824.71,174.28 L824.71,50.29 L793.52,101.74 Z" id="Path" fill="#39919A" fill-rule="nonzero"></path>
    </g>
</svg>