<?xml version="1.0" encoding="UTF-8"?>
<svg width="471px" height="306px" viewBox="0 0 471 306" version="1.1" xmlns="http://www.w3.org/2000/svg" xmlns:xlink="http://www.w3.org/1999/xlink">
    <title>Logo</title>
    <g id="Page-1" stroke="none" stroke-width="1" fill="none" fill-rule="evenodd">
        <g id="Logo_wit" transform="translate(-179.000000, -135.000000)" fill="#FFFFFE">
            <g id="Group" transform="translate(179.056100, 135.428000)">
                <path d="M423.8902,79.239 C414.5002,49.754 399.5382,28.858 387.8792,15.953 C389.3162,15.1 391.6022,14.063 392.3412,13.733 C396.4922,18.533 422.9292,50.185 425.0312,79.362 C424.6922,81.455 423.8902,79.239 423.8902,79.239 M411.4162,128.614 C403.3512,144.133 363.0332,130.093 357.9762,128.536 C352.9192,126.979 365.9842,86.079 365.9842,86.079 C368.6512,83.579 372.3502,85.944 391.9662,89.531 C411.5832,93.117 419.5662,112.931 411.4162,128.614 M333.5772,122.149 C327.8802,122.926 307.2952,115.387 307.5182,112.609 C307.7412,109.83 310.9682,74.681 315.6362,70.819 C315.6362,70.819 342.6792,75.979 345.7072,80.786 C345.7072,80.786 339.2732,121.371 333.5772,122.149 M359.7102,25.782 C359.7102,25.782 350.3982,61.431 348.5082,62.431 C346.6192,63.431 321.8622,57.788 321.7512,56.093 C321.6402,54.398 338.0092,33.338 359.7102,25.782 M370.9322,66.407 C370.9322,66.407 374.7532,36.567 376.8102,31.427 C378.8682,26.287 408.0042,73.662 406.6702,74.913 C405.3362,76.163 370.3272,70.371 370.9322,66.407 M393.6772,7.503 C392.6892,7.233 386.6292,10.093 383.8662,11.686 C376.2062,3.842 370.7512,0 370.7512,0 C313.5642,24.57 302.9112,69.021 299.2262,101.095 C295.5392,133.17 305.1212,136.498 305.1212,136.498 C339.2382,153.28 405.4312,157.301 412.7122,151.633 C419.9932,145.966 435.4862,106.717 429.9772,73.194 C424.4892,39.798 395.0632,7.883 393.6772,7.503" id="Fill-1"></path>
                <path d="M91.6231,46.7287 C91.6231,49.4337 90.5271,51.9787 88.3561,54.3397 C86.4461,56.4177 84.1251,57.9607 81.3951,58.9827 C81.2931,59.0177 81.2101,59.0417 81.1471,59.0547 C80.8551,59.1157 80.2071,58.3307 79.2051,56.7217 C78.2021,55.1137 77.7021,54.1187 77.7021,53.7167 C77.7021,53.5747 77.7971,53.4627 77.9871,53.3807 C79.8261,52.5377 81.0451,51.9027 81.6431,51.4687 C82.9631,50.4967 83.6241,49.3397 83.6241,48.0017 C83.6241,47.1497 83.1921,46.2957 82.3291,45.4517 C80.8291,44.0227 80.0171,43.2437 79.8901,43.0787 C79.0141,41.9387 78.5771,40.5587 78.5771,38.9237 C78.5771,36.5497 79.6571,34.2977 81.7941,32.1537 C83.5471,30.3957 85.7021,28.9647 88.2601,27.9137 C88.4001,27.8647 88.5091,27.8307 88.5851,27.8107 C88.7761,27.7627 88.9291,27.8827 89.0431,28.1717 C89.3741,29.0557 90.1451,30.6097 91.3551,32.8637 C91.3941,32.9347 91.4131,32.9967 91.4131,33.0497 C91.4131,33.2767 91.2981,33.4167 91.0691,33.4717 C90.9661,33.4957 90.7941,33.5167 90.5531,33.5347 C90.3111,33.5527 90.1261,33.5777 89.9981,33.6077 C89.0811,33.8287 88.2791,34.2527 87.5921,34.8467 C86.7771,35.5517 86.3521,36.3507 86.3521,37.2467 C86.3521,38.0507 86.8101,38.9287 87.7261,39.8917 C89.3421,41.6297 90.1901,42.5637 90.2661,42.6527 C91.1701,43.9137 91.6231,45.2767 91.6231,46.7287" id="Fill-3"></path>
                <path d="M115.9737,28.7615 C115.9737,29.0395 115.8317,29.2055 115.5497,29.2605 C115.0617,29.3555 113.1297,29.6205 109.7587,30.1035 C109.6827,33.5995 109.6437,36.0345 109.6437,37.4085 C109.6437,39.0325 109.7047,41.4605 109.8267,44.6995 C109.9487,47.9375 110.0087,50.3695 110.0087,51.9935 C110.0087,52.2545 109.9517,52.4295 109.8357,52.5175 C109.7977,52.5525 109.6147,52.6155 109.2977,52.7115 C108.5327,52.9445 107.4017,53.1975 105.9167,53.4555 C104.2657,53.7415 103.0987,53.9025 102.4427,53.9035041 C102.0897,53.9045 101.9057,53.7215 101.9057,53.3685 C101.9057,51.7665 101.9697,49.3525 102.0977,46.1235 C102.2247,42.8935 102.2887,40.4765 102.2887,38.8725 C102.2887,37.8135 102.2387,35.4595 102.1367,31.8155 C99.5787,32.6435 97.5417,33.2355 96.0237,33.5805 C95.8187,33.6275 95.7167,33.5835 95.7167,33.4495 C95.7167,33.2755 95.8037,32.7335 95.9857,31.8365 C96.1847,30.8525 96.3117,30.2455 96.3297,30.0435 C96.3867,29.4255 96.4107,28.7585 96.4637,28.1165 C96.5487,27.0905 96.7057,26.5465 96.9227,26.4945 C96.9487,26.4885 97.0377,26.4735 97.1907,26.4505 C99.2597,26.2415 102.3187,25.6685 106.3777,24.7735 C107.5297,24.5195 109.6567,23.9195 112.7597,23.0095 C114.4247,22.5215 115.2677,22.2815 115.2807,22.2795 C115.5367,22.2265 115.6847,22.2135 115.7237,22.2405 C115.7617,22.2665 115.7937,22.4035 115.8007,22.6305 C115.8097,22.9955 115.7867,23.5305 115.7617,24.1995 C115.7347,24.9405 115.7237,25.4645 115.7237,25.7695 C115.7237,26.1165 115.7657,26.6185 115.8487,27.2765 C115.9317,27.9325 115.9737,28.4285 115.9737,28.7615" id="Fill-5"></path>
                <path d="M128.356,34.0769 C128.356,35.7449 128.396,38.2469 128.472,41.5859 C128.549,44.9239 128.588,47.4279 128.588,49.0969 C128.588,49.3789 128.531,49.5639 128.415,49.6509 C128.39,49.6689 128.222,49.7219 127.913,49.8069 C127.076,50.0399 125.955,50.2579 124.554,50.4649 C122.674,50.7419 121.477,50.8699 120.965,50.8349 C120.593,50.8089 120.406,50.6199 120.406,50.2699 C120.406,50.4939 120.467,49.2519 120.58,46.5519 C120.817,40.8599 120.926,37.1099 120.926,35.3329 C120.926,33.8369 120.881,31.5979 120.792,28.6219 C120.703,25.6469 120.656,23.4099 120.656,21.9129 C120.656,21.6069 120.804,21.4229 121.101,21.3659 C121.498,21.2879 122.1,21.1929 122.902,21.0809 C123.707,20.9699 124.308,20.8769 124.707,20.8019 C125.106,20.7269 125.695,20.5959 126.473,20.4089 C127.253,20.2229 127.842,20.0939 128.24,20.0209 C128.614,19.9529 128.801,20.0759 128.801,20.3859 C128.801,21.8999 128.727,24.1829 128.579,27.2339 C128.431,30.2849 128.356,32.5649 128.356,34.0769" id="Fill-7"></path>
                <path d="M157.4434,41.2322 C157.4434,41.4662 157.3074,41.7872 157.0354,42.1952 C154.6514,45.6472 151.4854,47.5692 147.5414,48.0242 C143.5064,48.4892 140.2394,47.3502 137.7354,44.6502 C135.3074,42.0322 134.0794,38.5162 134.0794,34.0452 C134.0794,29.7172 135.2754,25.8542 137.6584,22.4402 C140.1504,18.8702 143.3194,16.7522 147.1724,16.1762 C151.3624,15.5492 154.6514,16.5442 157.0364,19.1422 C157.2944,19.4312 157.4244,19.6992 157.4244,19.9472 C157.4244,20.2242 156.9734,21.3112 156.0734,23.2042 C155.1734,25.0962 154.6074,26.1652 154.3744,26.4122 C154.2704,26.5432 154.1414,26.6162 153.9854,26.6362 C153.9204,26.6452 153.5974,26.3942 153.0144,25.8872 C152.3154,25.2802 151.6294,24.8262 150.9564,24.5242 C149.9344,24.0812 148.8734,23.9372 147.7744,24.0912 C145.8724,24.3572 144.3504,25.3742 143.2174,27.1212 C142.1704,28.7362 141.6474,30.6262 141.6474,32.7812 C141.6474,34.9652 142.1724,36.7232 143.2174,38.0652 C144.3544,39.5252 145.8724,40.1402 147.7744,39.9052 C148.9004,39.7662 149.9664,39.3632 150.9764,38.6902 C151.6364,38.2492 152.3144,37.6612 152.9954,36.9252 C153.5654,36.3102 153.8814,35.9922 153.9474,35.9842 C154.0754,35.9692 154.2054,36.0342 154.3354,36.1782 C154.5424,36.4172 155.1104,37.2612 156.0254,38.7172 C156.9714,40.2242 157.4434,41.0722 157.4434,41.2322" id="Fill-9"></path>
                <path d="M188.2002,42.9656 C188.2002,43.2786 188.1412,43.4766 188.0242,43.5586 C187.9722,43.6066 187.7872,43.6536 187.4772,43.7046 C186.6892,43.8366 185.5652,43.9596 184.1222,44.0556 C182.0792,44.1926 180.8812,44.2346 180.5242,44.1716 C180.1662,44.1076 179.9882,43.9196 179.9882,43.6076 C179.9882,42.4346 180.0362,40.6666 180.1342,38.3026 C180.2312,35.9406 180.2802,34.1716 180.2802,32.9976 C180.2802,32.4176 180.1322,32.0876 179.8502,32.0286 C179.4202,31.9386 177.8362,32.0096 175.1352,32.2466 C172.4192,32.4836 170.8352,32.6946 170.3822,32.8566 C170.0962,32.9566 169.9522,33.3026 169.9522,33.8926 C169.9522,35.0436 169.9852,36.7636 170.0502,39.0516 C170.1152,41.3406 170.1472,43.0606 170.1472,44.2116 C170.1472,44.6546 169.9722,44.9276 169.6222,45.0316 C169.2062,45.1556 167.9862,45.3046 165.9622,45.4886 C164.2112,45.6486 163.0922,45.7136 162.6162,45.6696 C162.2422,45.6336 162.0522,45.4226 162.0522,45.0416 C162.0522,43.4576 162.1202,41.0626 162.2562,37.8516 C162.3922,34.6406 162.4602,32.2356 162.4602,30.6366 C162.4602,28.9356 162.3952,26.3866 162.2662,22.9926 C162.1362,19.5986 162.0722,17.0516 162.0722,15.3506 C162.0722,15.0286 162.2072,14.8496 162.4802,14.8166 C162.8822,14.7676 163.4882,14.7156 164.2982,14.6636 C165.1092,14.6116 165.7152,14.5626 166.1182,14.5156 C166.5332,14.4676 167.1592,14.3736 167.9962,14.2346 C168.8322,14.0966 169.4592,14.0046 169.8752,13.9596 C170.0962,13.9346 170.2062,14.0556 170.2062,14.3216 C170.2062,15.4286 170.1342,17.0926 169.9912,19.3146 C169.8482,21.5356 169.7782,23.1986 169.7782,24.3046 C169.7782,24.8206 169.9022,25.1116 170.1472,25.1746 C170.4832,25.2606 172.1462,25.1476 175.1352,24.8706 C177.9132,24.6126 179.5302,24.4216 179.9682,24.2626 C180.2792,24.1496 180.4362,23.8286 180.4362,23.3086 C180.4362,22.2386 180.3902,20.6256 180.2992,18.4716 C180.2082,16.3176 180.1632,14.6976 180.1632,13.6126 C180.1632,13.1526 180.3252,12.9066 180.6502,12.8776 C181.0272,12.8426 181.6022,12.8136 182.3762,12.7896 C183.1502,12.7656 183.7322,12.7376 184.1222,12.7046 C184.4992,12.6726 185.0752,12.6016 185.8482,12.4926 C186.6222,12.3846 187.2052,12.3156 187.5952,12.2846 C187.9722,12.2546 188.1602,12.4196 188.1602,12.7776 C188.1602,14.4946 188.0982,17.0906 187.9752,20.5636 C187.8512,24.0356 187.7902,26.6376 187.7902,28.3696 C187.7902,29.9966 187.8582,32.4326 187.9952,35.6776 C188.1322,38.9236 188.2002,41.3536 188.2002,42.9656" id="Fill-11"></path>
                <path d="M213.3428,17.7214 C213.3428,18.0234 213.1988,18.1794 212.9128,18.1884 C212.4178,18.2054 210.4548,18.1564 207.0288,18.0824 C206.9498,21.8944 206.9108,24.5524 206.9108,26.0574 C206.9108,27.8334 206.9728,30.5024 207.0968,34.0654 C207.2198,37.6284 207.2828,40.2984 207.2828,42.0744 C207.2828,42.3604 207.2238,42.5424 207.1068,42.6224 C207.0678,42.6544 206.8828,42.6964 206.5588,42.7554 C205.7828,42.8974 204.6308,43.0084 203.1198,43.0714 C201.4398,43.1414 200.2498,43.1434 199.5838,43.0464 C199.2228,42.9944 199.0368,42.7644 199.0368,42.3744 C199.0368,40.6034 199.1018,37.9444 199.2318,34.3944 C199.3628,30.8464 199.4268,28.1854 199.4268,26.4134 C199.4268,25.2434 199.3758,22.6344 199.2708,18.5874 C196.6658,19.0354 194.5898,19.3184 193.0408,19.4214 C192.8328,19.4354 192.7288,19.3674 192.7288,19.2184 C192.7288,19.0234 192.8168,18.4364 193.0018,17.4714 C193.2048,16.4124 193.3348,15.7584 193.3528,15.5384 C193.4108,14.8544 193.4358,14.1224 193.4908,13.4174 C193.5778,12.2914 193.7378,11.7164 193.9588,11.7004 C193.9848,11.6994 194.0758,11.7004 194.2328,11.7044 C196.3418,11.8754 199.4598,11.8294 203.5888,11.6144 C204.7608,11.5524 206.9258,11.2944 210.0778,10.8814 C211.7698,10.6594 212.6258,10.5544 212.6388,10.5544 C212.8988,10.5444 213.0498,10.5584 213.0888,10.5944 C213.1278,10.6304 213.1598,10.7834 213.1658,11.0334 C213.1758,11.4294 213.1518,12.0064 213.1278,12.7304 C213.0998,13.5294 213.0888,14.0964 213.0888,14.4284 C213.0888,14.8054 213.1308,15.3574 213.2148,16.0864 C213.2998,16.8144 213.3428,17.3594 213.3428,17.7214" id="Fill-13"></path>
                <path d="M225.898,25.5329 C225.898,27.3159 225.937,29.9979 226.016,33.5779 C226.093,37.1589 226.132,39.8419 226.132,41.6249 C226.132,41.9269 226.075,42.1159 225.957,42.1929 C225.931,42.2079 225.761,42.2409 225.448,42.2899 C224.601,42.4219 223.466,42.4969 222.045,42.5199 C220.141,42.5519 218.926,42.5199 218.407,42.4079 C218.03,42.3279 217.841,42.0959 217.841,41.7189 C217.841,41.9609 217.902,40.6279 218.016,37.7299 C218.257,31.6179 218.368,27.5929 218.368,25.6759 C218.368,24.0609 218.323,21.6379 218.231,18.4109 C218.14,15.1829 218.094,12.7619 218.094,11.1459 C218.094,10.8149 218.245,10.6439 218.544,10.6359 C218.949,10.6249 219.558,10.6319 220.373,10.6569 C221.188,10.6829 221.797,10.6919 222.202,10.6839 C222.606,10.6759 223.202,10.6399 223.991,10.5809 C224.78,10.5209 225.377,10.4889 225.78,10.4827421 C226.158,10.4769 226.348,10.6419 226.348,10.9729 C226.348,12.5909 226.273,15.0169 226.124,18.2529 C225.973,21.4899 225.898,23.9159 225.898,25.5329" id="Fill-15"></path>
                <path d="M258.5806,11.5954 C258.5806,13.3134 258.5186,15.8914 258.3946,19.3304 C258.2716,22.7694 258.2096,25.3564 258.2096,27.0894 L258.2096,41.9864 C258.2096,42.3934 258.0206,42.5914 257.6436,42.5794 C257.3296,42.5704 256.8566,42.5714 256.2256,42.5834 C255.5936,42.5954 255.1206,42.5984 254.8076,42.5904 C254.4686,42.5804 253.9596,42.5364 253.2826,42.4604 C252.6046,42.3844 252.0966,42.3414 251.7576,42.3344 C251.5226,42.3284 251.2426,42.0744 250.9166,41.5684 C249.9776,40.0844 247.8656,36.7914 244.5796,31.7134 C243.6806,30.2944 242.3106,28.2064 240.4726,25.4534 C240.4196,25.3634 240.3216,25.2714 240.1786,25.1794 C240.0746,25.2844 240.0216,25.4504 240.0216,25.6774 C240.0216,27.4304 240.0636,30.0614 240.1486,33.5684 C240.2336,37.0764 240.2766,39.7064 240.2766,41.4604 C240.2766,41.9894 240.1006,42.2524 239.7476,42.2504 C237.0406,42.2324 235.6866,42.2294 232.9796,42.2354 C232.6016,42.2364 232.4126,42.0024 232.4126,41.5334 C232.4126,39.9014 232.4806,37.4374 232.6176,34.1404 C232.7546,30.8444 232.8236,28.3724 232.8236,26.7244 C232.8236,24.9864 232.7616,22.3854 232.6376,18.9234 C232.5136,15.4624 232.4516,12.8694 232.4516,11.1464 C232.4516,10.8144 232.7056,10.6464 233.2146,10.6454 C233.9706,10.6434 234.9026,10.5814 236.0126,10.4634 C236.2726,10.4334 236.7896,10.3324 237.5576,10.1734 C238.2056,10.0384 238.7246,9.9754 239.1026,9.9782978 C239.2596,9.9804 239.5006,10.2394 239.8266,10.7564 C242.7456,15.4154 244.2036,17.7544 247.1216,22.4414 C247.7736,23.4954 248.7586,25.0414 250.0756,27.0784 C250.4006,27.5544 250.6826,27.7954 250.9166,27.8014 C251.0866,27.8044 251.1706,27.2184 251.1706,26.0404 C251.1706,24.4554 251.0956,22.0694 250.9456,18.8804 C250.7956,15.6914 250.7216,13.2964 250.7216,11.6964 C250.7216,11.1374 250.8576,10.8624 251.1316,10.8694 C251.9136,10.8904 253.0936,10.8874 254.6706,10.8644 C256.2476,10.8414 257.4276,10.8484 258.2096,10.8804 C258.4576,10.8894 258.5806,11.1284 258.5806,11.5954" id="Fill-17"></path>
                <path d="M290.4283,43.5691 C290.4543,43.9721 290.2733,44.1591 289.8823,44.1311 C289.6353,44.1121 288.9233,43.8971 287.7463,43.4861 C286.5713,43.0771 285.8453,42.8041 285.5733,42.6661 C282.8543,43.7031 280.2463,44.1571 277.7473,44.0161 C273.7263,43.7881 270.4253,42.0841 267.8453,38.8781 C265.2983,35.7131 264.0163,31.8011 264.0163,27.1371 C264.0163,22.3691 265.2563,18.4631 267.7293,15.4571 C270.2823,12.3531 273.5953,10.9321 277.6683,11.2281 C279.6483,11.3721 281.5183,11.9491 283.2513,12.9591 C285.1343,14.0561 286.6193,15.5351 287.6983,17.3541 C287.9193,17.7301 288.0313,17.9931 288.0313,18.1411 C288.0313,18.6181 287.4483,19.6341 286.2843,21.1981 C285.1213,22.7621 284.3693,23.5371 284.0323,23.5101 C283.9533,23.5051 283.6553,23.1701 283.1333,22.5251 C282.5043,21.7471 281.8463,21.1301 281.1823,20.6771 C280.1943,19.9921 279.1003,19.6071 277.9043,19.5241 C275.9513,19.3891 274.4043,20.1381 273.2563,21.7391 C272.1973,23.2171 271.6553,25.1171 271.6553,27.4271 C271.6553,29.8731 272.2083,31.8401 273.3153,33.3221 C274.4583,34.8541 276.0813,35.6781 278.1763,35.8071 C279.5043,35.8881 280.9883,35.6021 282.6273,34.9521 C282.5873,34.4571 282.4823,33.1821 282.2763,31.1681 C282.1163,29.6131 282.0223,28.3441 282.0223,27.3891 C282.0223,27.1061 282.1063,26.9401 282.2763,26.8931 C282.3403,26.8671 282.4443,26.8601 282.5873,26.8701 C282.9643,26.8981 283.5333,26.9801 284.2943,27.1191 C285.0563,27.2591 285.6313,27.3441 286.0223,27.3751 C286.4373,27.4071 287.0623,27.4221 287.8933,27.4221 C288.7253,27.4221 289.3493,27.4411 289.7653,27.4761 C290.0903,27.5031 290.2523,27.7611 290.2523,28.2521 C290.2523,28.9651 290.2173,30.0381 290.1453,31.4731 C290.0743,32.9081 290.0383,33.9821 290.0383,34.6951 C290.0383,36.6111 290.1623,39.4881 290.4083,43.3221 L290.4283,43.5691 Z" id="Fill-19"></path>
                <path d="M86.3516,77.5246 C86.3516,79.0806 86.3906,81.4146 86.4666,84.5296 C86.5426,87.6446 86.5806,89.9816 86.5806,91.5376 C86.5806,91.8016 86.5236,91.9736 86.4096,92.0546 C86.3836,92.0706 86.2186,92.1196 85.9126,92.1986 C85.0866,92.4136 83.9796,92.6116 82.5956,92.7976 C80.7406,93.0476 79.5586,93.1606 79.0526,93.1246 C78.6856,93.0986 78.5006,92.9216 78.5006,92.5976 C78.5006,92.8056 78.5606,91.6536 78.6716,89.1486 C78.9066,83.8646 79.0146,80.3836 79.0146,78.7336 C79.0146,77.3446 78.9696,75.2676 78.8806,72.5056 C78.7926,69.7436 78.7476,67.6706 78.7476,66.2806 C78.7476,65.9956 78.8936,65.8236 79.1856,65.7656 C79.5796,65.6886 80.1726,65.5916 80.9656,65.4766 C81.7596,65.3616 82.3536,65.2676 82.7476,65.1916 C83.1416,65.1166 83.7226,64.9856 84.4916,64.8006 C85.2606,64.6156 85.8426,64.4866 86.2376,64.4126 C86.6056,64.3436 86.7906,64.4556 86.7906,64.7446 C86.7906,66.1576 86.7176,68.2896 86.5706,71.1376 C86.4246,73.9856 86.3516,76.1136 86.3516,77.5246" id="Fill-21"></path>
                <path d="M118.4004,59.7278 C118.4004,61.3168 118.3394,63.7128 118.2174,66.9138 C118.0954,70.1138 118.0344,72.5138 118.0344,74.1158 L118.0344,87.8858 C118.0344,88.2628 117.8484,88.4698 117.4754,88.5078 C117.1674,88.5388 116.7014,88.6008 116.0794,88.6928 C115.4564,88.7858 114.9914,88.8478 114.6834,88.8798 C114.3494,88.9148 113.8494,88.9398 113.1824,88.9558 C112.5154,88.9718 112.0154,88.9978 111.6814,89.0338 C111.4514,89.0588 111.1754,88.8608 110.8554,88.4408 C109.9314,87.2058 107.8544,84.4658 104.6304,80.3448 C103.7474,79.1918 102.4034,77.5028 100.6024,75.3118 C100.5504,75.2378 100.4544,75.1698 100.3144,75.1098 C100.2124,75.2198 100.1604,75.3758 100.1604,75.5788 C100.1604,77.1488 100.2024,79.4978 100.2854,82.6268 C100.3684,85.7568 100.4094,88.1068 100.4094,89.6778 C100.4094,90.1518 100.2374,90.4088 99.8924,90.4498 C97.2394,90.7648 95.9144,90.9258 93.2684,91.2558 C92.8974,91.3018 92.7134,91.1188 92.7134,90.7048 C92.7134,89.2628 92.7804,87.0788 92.9134,84.1478 C93.0474,81.2188 93.1144,79.0238 93.1144,77.5668 C93.1144,76.0308 93.0544,73.7408 92.9324,70.7028 C92.8124,67.6648 92.7514,65.3848 92.7514,63.8638 C92.7514,63.5698 93.0004,63.3778 93.4974,63.2908 C94.2364,63.1598 95.1484,62.9458 96.2334,62.6488 C96.4884,62.5788 96.9944,62.3998 97.7464,62.1248 C98.3824,61.8928 98.8894,61.7468 99.2604,61.6838 C99.4134,61.6578 99.6494,61.8468 99.9694,62.2528 C102.8294,65.9198 104.2604,67.7868 107.1264,71.5798 C107.7664,72.4338 108.7334,73.6838 110.0274,75.3428 C110.3484,75.7278 110.6244,75.9048 110.8554,75.8748 C111.0214,75.8528 111.1054,75.3048 111.1054,74.2298 C111.1054,72.7828 111.0304,70.6138 110.8834,67.7278 C110.7364,64.8418 110.6624,62.6698 110.6624,61.2098 C110.6624,60.7008 110.7964,60.4248 111.0664,60.3828 C111.8354,60.2648 112.9954,60.0528 114.5484,59.7508 C116.1014,59.4498 117.2634,59.2448 118.0344,59.1328 C118.2784,59.0978 118.4004,59.2958 118.4004,59.7278" id="Fill-23"></path>
                <path d="M143.3145,62.4787 C143.3145,62.7677 143.1725,62.9257 142.8885,62.9557 C142.3975,63.0077 140.4525,63.1017 137.0585,63.2697 C136.9815,66.8937 136.9425,69.4187 136.9425,70.8477 C136.9425,72.5337 137.0035,75.0627 137.1265,78.4377 C137.2485,81.8127 137.3105,84.3457 137.3105,86.0317 C137.3105,86.3037 137.2525,86.4797 137.1355,86.5617 C137.0975,86.5937 136.9135,86.6427 136.5935,86.7147 C135.8245,86.8877 134.6845,87.0487 133.1895,87.1807 C131.5255,87.3267 130.3505,87.3837 129.6895,87.3237 C129.3345,87.2907 129.1485,87.0837 129.1485,86.7157 C129.1485,85.0457 129.2125,82.5367 129.3425,79.1837 C129.4715,75.8307 129.5355,73.3167 129.5355,71.6467 C129.5355,70.5427 129.4835,68.0847 129.3805,64.2767 C126.8045,64.8747 124.7525,65.2737 123.2215,65.4707 C123.0155,65.4977 122.9135,65.4397 122.9135,65.3007 C122.9135,65.1177 123.0005,64.5617 123.1835,63.6447 C123.3835,62.6387 123.5115,62.0167 123.5305,61.8087 C123.5875,61.1657 123.6115,60.4757 123.6665,59.8107 C123.7525,58.7477 123.9105,58.1967 124.1285,58.1667 C124.1535,58.1627 124.2445,58.1577 124.3985,58.1507 C126.4835,58.1607 129.5655,57.8947 133.6525,57.3847 C134.8145,57.2407 136.9565,56.8357 140.0795,56.2017 C141.7555,55.8607 142.6045,55.6947 142.6165,55.6927 C142.8755,55.6637 143.0235,55.6647 143.0625,55.6957 C143.1015,55.7277 143.1335,55.8717 143.1395,56.1087 C143.1495,56.4867 143.1255,57.0387 143.1015,57.7307 C143.0745,58.4957 143.0625,59.0377 143.0625,59.3537 C143.0625,59.7147 143.1045,60.2387 143.1885,60.9277 C143.2725,61.6167 143.3145,62.1337 143.3145,62.4787" id="Fill-25"></path>
                <path d="M167.5186,68.9953 C167.5186,66.7863 166.9256,64.9503 165.7476,63.4953 C164.5146,61.9753 162.9386,61.2933 161.0206,61.4543 C159.1936,61.6083 157.6446,62.5813 156.3746,64.3513 C155.1476,66.0633 154.5296,67.9583 154.5296,70.0403 C154.5296,72.2683 155.1056,74.0813 156.2586,75.4753 C157.4706,76.9423 159.0636,77.6083 161.0206,77.4713 C162.8486,77.3433 164.4096,76.4103 165.6896,74.6623 C166.9086,72.9963 167.5186,71.1013 167.5186,68.9953 M174.8986,68.5503 C174.8986,73.1703 173.6066,77.1283 171.0226,80.3853 C168.3956,83.6973 165.0526,85.4573 161.0206,85.7103 C157.0146,85.9623 153.6946,84.6063 151.0546,81.6793 C148.4716,78.8153 147.1736,75.1673 147.1736,70.6873 C147.1736,66.1923 148.4706,62.2873 151.0546,58.9543 C153.6946,55.5493 157.0146,53.6243 161.0206,53.2593 C164.9996,52.8953 168.3316,54.2153 170.9846,57.2183 C173.5936,60.1723 174.8986,63.9743 174.8986,68.5503" id="Fill-27"></path>
                <path d="M203.1182,77.8957 C203.1182,78.1367 202.9822,78.4567 202.7092,78.8547 C200.3112,82.2157 197.1262,83.9507 193.1572,84.0907 C189.0962,84.2337 185.8062,82.7667 183.2822,79.7237 C180.8352,76.7707 179.5972,72.9787 179.5972,68.3137 C179.5972,63.7977 180.8042,59.8907 183.2042,56.5887 C185.7152,53.1377 188.9072,51.2797 192.7852,51.0797 C197.0032,50.8617 200.3112,52.2137 202.7092,55.1147 C202.9692,55.4357 203.0992,55.7247 203.0992,55.9787 C203.0992,56.2657 202.6462,57.3417 201.7412,59.2087 C200.8352,61.0747 200.2662,62.1247 200.0322,62.3587 C199.9272,62.4837 199.7982,62.5477 199.6412,62.5547 C199.5762,62.5567 199.2512,62.2687 198.6642,61.6917 C197.9612,60.9997 197.2702,60.4657 196.5932,60.0907 C195.5652,59.5347 194.4972,59.2827 193.3912,59.3347 C191.4772,59.4247 189.9442,60.3267 188.8042,62.0267 C187.7492,63.5997 187.2222,65.5107 187.2222,67.7497 C187.2222,70.0187 187.7512,71.8957 188.8042,73.3857 C189.9492,75.0057 191.4772,75.7807 193.3912,75.7057 C194.5242,75.6617 195.5972,75.3367 196.6132,74.7297 C197.2782,74.3317 197.9602,73.7817 198.6452,73.0827 C199.2182,72.4977 199.5362,72.1957 199.6022,72.1937 C199.7322,72.1887 199.8622,72.2677 199.9932,72.4277 C200.2012,72.6907 200.7722,73.6107 201.6922,75.1887 C202.6442,76.8207 203.1182,77.7307 203.1182,77.8957" id="Fill-29"></path>
                <path d="M233.9966,81.8615 C233.9966,82.1785 233.9376,82.3755 233.8196,82.4515 C233.7676,82.4965 233.5826,82.5315 233.2716,82.5655 C232.4826,82.6495 231.3546,82.7035 229.9076,82.7105 C227.8596,82.7185 226.6566,82.6825 226.2986,82.5945 C225.9396,82.5065 225.7616,82.3035 225.7616,81.9865 C225.7616,80.7935 225.8096,78.9985 225.9076,76.6015 C226.0056,74.2055 226.0546,72.4105 226.0546,71.2165 C226.0546,70.6275 225.9066,70.2815 225.6236,70.2005 C225.1916,70.0775 223.6026,70.0355 220.8916,70.0735 C218.1656,70.1115 216.5756,70.2025 216.1196,70.3315 C215.8326,70.4125 215.6886,70.7555 215.6886,71.3585 C215.6886,72.5345 215.7216,74.2965 215.7866,76.6405 C215.8506,78.9865 215.8846,80.7475 215.8846,81.9235 C215.8846,82.3765 215.7086,82.6435 215.3566,82.7245 C214.9386,82.8215 213.7136,82.8865 211.6806,82.9265 C209.9216,82.9615 208.7966,82.9445 208.3186,82.8625 C207.9426,82.7985 207.7516,82.5675 207.7516,82.1755 C207.7516,80.5495 207.8206,78.0945 207.9566,74.8075 C208.0936,71.5225 208.1626,69.0585 208.1626,67.4175 C208.1626,65.6705 208.0966,63.0475 207.9666,59.5515 C207.8366,56.0555 207.7706,53.4335 207.7706,51.6865 C207.7706,51.3565 207.9076,51.1855 208.1826,51.1765 C208.5856,51.1635 209.1946,51.1665 210.0086,51.1875 C210.8236,51.2085 211.4326,51.2135 211.8376,51.2015 C212.2536,51.1905 212.8836,51.1505 213.7236,51.0835 C214.5636,51.0175 215.1936,50.9795 215.6106,50.9695 C215.8326,50.9645 215.9426,51.0975 215.9426,51.3685 C215.9426,52.5015 215.8716,54.1965 215.7276,56.4555 C215.5836,58.7145 215.5136,60.4085 215.5136,61.5405 C215.5136,62.0685 215.6376,62.3765 215.8846,62.4605 C216.2216,62.5755 217.8916,62.5975 220.8916,62.5525 C223.6806,62.5105 225.3016,62.4395 225.7416,62.3115 C226.0526,62.2205 226.2106,61.9065 226.2106,61.3775 C226.2106,60.2895 226.1646,58.6465 226.0736,56.4475 C225.9826,54.2505 225.9366,52.5995 225.9366,51.4965 C225.9366,51.0285 226.0996,50.7925 226.4256,50.7885 C226.8036,50.7845 227.3816,50.8025 228.1576,50.8405 C228.9336,50.8805 229.5166,50.8995 229.9076,50.8975 C230.2856,50.8955 230.8636,50.8695 231.6396,50.8205 C232.4146,50.7725 232.9986,50.7485 233.3906,50.7475 C233.7676,50.7475 233.9566,50.9285 233.9566,51.2915 C233.9566,53.0305 233.8946,55.6535 233.7706,59.1615 C233.6476,62.6685 233.5856,65.2995 233.5856,67.0535 C233.5856,68.7015 233.6536,71.1735 233.7906,74.4685 C233.9286,77.7645 233.9966,80.2285 233.9966,81.8615" id="Fill-31"></path>
                <path d="M259.1666,58.0276 C259.1666,58.3296 259.0236,58.4756 258.7376,58.4676 C258.2416,58.4546 256.2796,58.2846 252.8526,57.9866 C252.7726,61.8036 252.7336,64.4666 252.7336,65.9756 C252.7336,67.7566 252.7966,70.4356 252.9196,74.0146 C253.0436,77.5926 253.1056,80.2726 253.1056,82.0526 C253.1056,82.3396 253.0476,82.5196 252.9306,82.5926 C252.8916,82.6236 252.7056,82.6556 252.3826,82.6976 C251.6056,82.7996 250.4526,82.8506 248.9406,82.8326 C247.2586,82.8116 246.0666,82.7476 245.4006,82.6126 C245.0396,82.5406 244.8536,82.2986 244.8536,81.9056 C244.8536,80.1226 244.9176,77.4486 245.0486,73.8846 C245.1796,70.3196 245.2436,67.6466 245.2436,65.8626 C245.2436,64.6846 245.1916,62.0556 245.0876,57.9746 C242.4796,58.2466 240.3996,58.3836 238.8476,58.3766 C238.6386,58.3756 238.5356,58.2996 238.5356,58.1486 C238.5356,57.9516 238.6226,57.3656 238.8086,56.4036 C239.0116,55.3506 239.1416,54.6986 239.1606,54.4786 C239.2186,53.7906 239.2436,53.0556 239.2976,52.3476 C239.3856,51.2166 239.5456,50.6476 239.7676,50.6495947 C239.7926,50.6495947 239.8846,50.6576 240.0416,50.6736 C242.1536,51.0056 245.2766,51.1906 249.4096,51.2636 C250.5836,51.2846 252.7506,51.1776 255.9016,50.9756 C257.5946,50.8676 258.4506,50.8196 258.4636,50.8196 C258.7236,50.8276 258.8736,50.8516 258.9126,50.8896 C258.9516,50.9286 258.9836,51.0826 258.9906,51.3326 C259.0006,51.7296 258.9766,52.3056 258.9516,53.0266 C258.9246,53.8236 258.9126,54.3896 258.9126,54.7206 C258.9126,55.0976 258.9546,55.6526 259.0396,56.3856 C259.1246,57.1186 259.1666,57.6666 259.1666,58.0276" id="Fill-33"></path>
                <path d="M175.396,300.6872 C175.396,301.1282 175.313,301.3952 175.146,301.4832 C175.073,301.5392 174.811,301.562208 174.372,301.562208 C173.254,301.5632 171.659,301.4712 169.611,301.2462 C166.715,300.9262 165.015,300.6582 164.509,300.4732 C164.001,300.2882 163.748,299.9752 163.748,299.5382 C163.748,297.8892 163.817,295.4192 163.955,292.1272 C164.094,288.8372 164.163,286.3662 164.163,284.7162 C164.163,283.9032 163.956,283.4012 163.555,283.2442 C162.944,283.0032 160.697,282.6962 156.87,282.2512 C153.022,281.8052 150.779,281.6002 150.136,281.6832 C149.731,281.7352 149.529,282.1722 149.529,282.9962 C149.529,284.6012 149.576,287.0122 149.667,290.2262 C149.76,293.4392 149.805,295.8512 149.805,297.4582 C149.805,298.0752 149.557,298.4002 149.061,298.4302 C148.472,298.4682 146.745,298.2812 143.88,297.8372 C141.401,297.4542 139.818,297.1362 139.145,296.9022 C138.614,296.7162 138.347,296.3542 138.347,295.8252 C138.347,293.6292 138.443,290.3312 138.635,285.9252 C138.828,281.5192 138.925,278.2062 138.925,275.9882 C138.925,273.6272 138.833,270.0682 138.649,265.3142 C138.465,260.5622 138.375,257.0082 138.375,254.6492 C138.375,254.2032 138.567,254.0002 138.952,254.0432 C139.52,254.1082 140.378,254.2362 141.525,254.4222 C142.671,254.6102 143.531,254.7332 144.101,254.7932 C144.688,254.8572 145.575,254.9202 146.759,254.9822 C147.943,255.0432 148.831,255.1022 149.419,255.1612 C149.731,255.1922 149.888,255.3932 149.888,255.7642 C149.888,257.3092 149.786,259.6102 149.584,262.6662 C149.382,265.7232 149.281,268.0212 149.281,269.5642 C149.281,270.2862 149.457,270.7292 149.805,270.8922 C150.28,271.1142 152.636,271.4752 156.87,271.9252 C160.808,272.3442 163.1,272.4822 163.72,272.3722 C164.16,272.2922 164.384,271.8822 164.384,271.1512 C164.384,269.6492 164.319,267.3732 164.19,264.3252 C164.062,261.2772 163.997,258.9912 163.997,257.4682 C163.997,256.8212 164.227,256.5162 164.688,256.5542 C165.222,256.5982 166.038,256.6972 167.135,256.8462 C168.231,256.9962 169.058,257.0902 169.611,257.1332 C170.146,257.1732 170.963,257.2052 172.06,257.2222 C173.157,257.2412 173.984,257.2672 174.538,257.3062 C175.073,257.3432 175.34,257.6152 175.34,258.1212 C175.34,260.5412 175.252,264.1882 175.077,269.0552 C174.901,273.9232 174.814,277.5792 174.814,280.0192 C174.814,282.3132 174.911,285.7602 175.105,290.3672 C175.298,294.9732 175.396,298.4142 175.396,300.6872" id="Fill-35"></path>
                <path d="M217.2115,288.5798 C217.2115,294.0478 216.6465,297.7648 215.5165,299.7238 C213.4415,303.3038 208.2635,304.9678 199.9905,304.4808 C196.2525,304.2608 193.3715,303.7288 191.3595,302.9228 C188.1465,301.6328 186.0535,299.4268 185.0935,296.3628 C184.6125,294.8618 184.3725,292.2388 184.3725,288.4918 C184.3725,287.6248 184.4005,286.3348 184.4565,284.6238 C184.5115,282.9138 184.5385,281.6348 184.5385,280.7878 C184.5385,278.3318 184.4375,274.6388 184.2345,269.7148 C184.0305,264.7908 183.9285,261.1118 183.9285,258.6788 C183.9285,258.1698 184.1235,257.9278 184.5115,257.9498 C185.6375,258.0168 187.3435,258.1678 189.6275,258.3938 C191.9095,258.6198 193.6165,258.7558 194.7455,258.8088 C195.2075,258.8308 195.4395,259.0748 195.4395,259.5438 C195.4395,262.3538 195.3605,266.5618 195.2035,272.1638 C195.0455,277.7658 194.9675,281.9708 194.9675,284.7808 C194.9675,288.1228 195.2815,290.4008 195.8835,291.6058 C196.7005,293.2418 198.3995,294.1558 200.9905,294.2938 C204.7835,294.4958 206.6825,292.4428 206.6825,288.1868 C206.6825,285.0858 206.6175,280.4328 206.4875,274.2258 C206.3575,268.0188 206.2935,263.3648 206.2935,260.2648 C206.2935,259.6018 206.5245,259.2788 206.9875,259.2938 C208.0805,259.3298 209.7285,259.3268 211.9325,259.2778 C214.1355,259.2298 215.7845,259.2128 216.8775,259.2348 C217.4155,259.2468 217.6835,259.5098 217.6835,260.0238 C217.6835,262.4898 217.5955,266.2108 217.4195,271.1818 C217.2435,276.1518 217.1555,279.8828 217.1555,282.3698 C217.1555,283.0558 217.1645,284.0908 217.1835,285.4758 C217.2015,286.8578 217.2115,287.8928 217.2115,288.5798" id="Fill-37"></path>
                <path d="M237.5567,280.8122 C237.5567,283.3462 237.6127,287.1602 237.7237,292.2502 C237.8347,297.3402 237.8907,301.1542 237.8907,303.6892 C237.8907,304.1192 237.8067,304.3872 237.6397,304.4962 C237.6017,304.5172 237.3617,304.5622 236.9167,304.6272 C235.7157,304.8042 234.0997,304.8922 232.0807,304.8832 C229.3747,304.8722 227.6477,304.7632 226.9107,304.5812 C226.3747,304.4472 226.1047,304.1082 226.1047,303.5712 C226.1047,303.9152 226.1927,302.0222 226.3547,297.9052 C226.6977,289.2212 226.8557,283.5002 226.8557,280.7742 C226.8557,278.4762 226.7907,275.0292 226.6607,270.4312 C226.5317,265.8352 226.4667,262.3872 226.4667,260.0892 C226.4667,259.6182 226.6787,259.3832 227.1057,259.386172 C227.6797,259.3922 228.5467,259.4322 229.7037,259.5022 C230.8617,259.5742 231.7287,259.6092 232.3037,259.6102 C232.8777,259.6122 233.7257,259.5822 234.8467,259.5172 C235.9667,259.4542 236.8157,259.4182 237.3897,259.4162 C237.9277,259.4152 238.1957,259.6502 238.1957,260.1232 C238.1957,262.4212 238.0897,265.8702 237.8767,270.4672 C237.6627,275.0652 237.5567,278.5132 237.5567,280.8122" id="Fill-39"></path>
                <path d="M271.8394,303.9831 C270.7484,304.0511 269.1104,304.0881 266.9264,304.0791 C264.7414,304.0701 263.1034,304.0831 262.0104,304.1321 C260.4554,304.2041 258.1304,304.2861 255.0384,304.3481 C251.9444,304.4111 249.6194,304.4471 248.0644,304.4821 C247.3974,304.4971 246.9734,304.2241 246.9244,303.7651 C246.7894,302.5081 246.7984,300.2241 246.3684,297.6591 C246.1994,296.6491 246.0344,296.0221 246.0344,295.8941 C246.0344,295.7871 248.3054,291.5921 252.8444,283.2721 C257.3824,274.9511 259.6514,270.4681 259.6514,269.8471 C259.6514,269.5041 259.4094,269.3411 258.9284,269.3561 C257.6314,269.3961 255.6724,269.4991 253.0524,269.6461 C250.4314,269.7931 248.4624,269.8701 247.1474,269.8901 C246.7384,269.8971 246.5354,269.6541 246.5354,269.1601 C246.5354,268.3661 246.7434,266.8171 247.1604,264.5131 C247.5774,262.2121 247.7854,260.5451 247.7854,259.5141 C247.7854,259.1701 248.0364,258.9951 248.5354,258.9871 C251.0934,258.9461 254.9334,258.9411 260.0534,258.9191 C265.1724,258.8961 269.0094,258.8031 271.5624,258.6931 C271.9504,258.6761 272.2004,258.9101 272.3124,259.3961 C272.6454,261.0861 272.8114,263.5171 272.8114,266.6911 C272.8114,267.0751 272.6454,267.5621 272.3124,268.1541 C271.1464,270.1491 268.6894,274.5531 264.9544,281.3591 C260.6944,289.1221 258.5674,293.1901 258.5674,293.5531 C258.5674,293.7251 258.7244,293.8041 259.0394,293.7931 C262.7984,293.6491 265.6864,293.4221 267.7034,293.1471 C268.1104,293.1061 269.0084,292.9371 270.3684,292.6211 C271.5284,292.3511 272.3954,292.1851 272.9504,292.1531 C273.2094,292.1371 273.3384,292.3531 273.3384,292.8001 C273.3384,296.2731 273.0694,299.7501 272.5334,303.2361 C272.4594,303.7091 272.2284,303.9591 271.8394,303.9831" id="Fill-41"></path>
                <path d="M309.4527,290.2156 C309.4527,291.1106 309.2927,292.7736 308.9837,295.2006 C308.6477,297.8376 308.3607,299.4426 308.0987,299.9616 C307.8887,300.3806 307.5747,300.6196 307.1867,300.6676 C307.0207,300.6886 306.7457,300.6906 306.3577,300.6746 C305.0137,300.6296 301.0887,301.0156 294.5737,301.6746 C293.1517,301.8186 291.0377,302.0176 288.2297,302.2506 C285.4227,302.4836 283.3147,302.6446 281.9107,302.7556 C281.3017,302.8046 280.9957,302.5206 280.9957,301.9046 C280.9957,299.5286 281.1107,295.9486 281.3427,291.1696 C281.5737,286.3906 281.6887,282.8136 281.6887,280.4376 C281.6887,278.0196 281.5727,273.5156 281.3557,266.9346 C281.2997,265.2416 281.1987,262.7116 281.0517,259.3456 C281.0397,259.1676 281.0347,259.0796 281.0227,258.9026 C280.9867,258.4156 281.2177,258.1586 281.7177,258.1316 C283.0847,258.0566 285.1407,257.9836 287.8847,257.8976 C290.6277,257.8116 292.6817,257.7126 294.0477,257.6176 C295.3947,257.5246 297.4267,257.3376 300.1377,257.0446 C302.8477,256.7526 304.8757,256.5446 306.2207,256.4316 C307.1787,256.3516 307.7267,256.7146 307.8787,257.5096 C307.9677,257.9776 308.1127,259.4196 308.3067,261.8266 C308.4997,264.2346 308.5977,265.6976 308.5977,266.2176 C308.5977,266.6536 308.4127,266.8906 308.0437,266.9256 C307.9337,266.9366 307.7407,266.9446 307.4637,266.9486 C302.5627,266.9556 298.1537,267.0906 294.2407,267.3906 C293.2627,267.4656 292.6627,267.7746 292.4407,268.3176 C292.3487,268.5766 292.3037,269.3916 292.3037,270.7616 C292.3037,272.1946 292.4907,273.1286 292.8567,273.5636 C293.1717,273.9366 293.7697,274.0906 294.6567,274.0186 C294.8417,274.0026 295.2007,273.9576 295.7357,273.8816 C296.2717,273.8056 296.7137,273.7516 297.0647,273.7216 C299.3897,273.5246 301.7417,273.2396 304.1187,272.8666 C304.3217,272.8276 304.8417,272.7366 305.6397,272.5656 C306.2597,272.4326 306.7637,272.3316 307.1327,272.2946 C307.5747,272.2516 307.7957,272.4676 307.7957,272.9476 C307.7957,272.5096 307.6237,274.1236 307.2987,277.7776 C307.1477,279.4586 307.0767,281.1356 307.0767,282.8026 C307.0767,283.2186 306.8087,283.4566 306.2757,283.5136 C305.2807,283.4946 304.7827,283.4846 303.7877,283.4616 C302.7367,283.4446 300.3407,283.6296 296.5947,283.9746 C295.4207,284.0816 294.8337,284.1346 293.6597,284.2366 C292.9027,284.3036 292.4597,284.5526 292.3297,284.9846 C292.3117,285.0926 292.3037,285.7456 292.3037,286.9466 C292.3037,288.5486 292.3947,289.5736 292.5797,290.0206 C292.8927,290.7926 294.0757,291.1616 296.1237,291.1116 C296.0867,291.1146 297.4337,290.9886 300.1637,290.7086 C301.1407,290.6086 302.5947,290.3576 304.5197,289.9476 C306.4447,289.5386 307.8877,289.2746 308.8457,289.1626 C309.2507,289.1156 309.4527,289.4666 309.4527,290.2156" id="Fill-43"></path>
                <path d="M353.4595,252.0398 C353.4595,254.2898 353.3735,257.6818 353.2005,262.2198 C353.0265,266.7578 352.9395,270.1658 352.9395,272.4358 L352.9395,291.9588 C352.9395,292.4918 352.6755,292.8118 352.1475,292.9188 C351.7085,293.0078 351.0455,293.1598 350.1615,293.3758 C349.2755,293.5908 348.6135,293.7388 348.1755,293.8238 C347.6995,293.9168 346.9865,294.0158 346.0375,294.1168 C345.0875,294.2188 344.3735,294.3118 343.8975,294.4008 C343.5695,294.4628 343.1765,294.2048 342.7195,293.6278 C341.4015,291.9258 338.4385,288.1648 333.8185,282.1168 C332.5555,280.4228 330.6295,277.9288 328.0415,274.5788 C327.9685,274.4668 327.8315,274.3618 327.6285,274.2678 C327.4815,274.4298 327.4095,274.6628 327.4095,274.9698 C327.4095,277.3388 327.4695,280.8858 327.5885,285.6028 C327.7075,290.3228 327.7675,293.8658 327.7675,296.2338 C327.7675,296.9478 327.5195,297.3448 327.0225,297.4228 C323.2125,298.0218 321.3055,298.3058 317.4865,298.8428 C316.9535,298.9178 316.6875,298.6348 316.6875,297.9938 C316.6875,295.7638 316.7835,292.3838 316.9765,287.8568 C317.1695,283.3308 317.2665,279.9448 317.2665,277.6948 C317.2665,275.3208 317.1785,271.7808 317.0045,267.0718 C316.8285,262.3628 316.7415,258.8288 316.7415,256.4748 C316.7415,256.0188 317.1015,255.7578 317.8175,255.6868 C318.8845,255.5828 320.1995,255.3698 321.7615,255.0448 C322.1285,254.9668 322.8565,254.7528 323.9385,254.4178 C324.8525,254.1358 325.5825,253.9688 326.1145,253.9118 C326.3355,253.8888 326.6745,254.1998 327.1335,254.8438 C331.2415,260.6568 333.2935,263.5178 337.3935,269.1238 C338.3085,270.3858 339.6905,272.2238 341.5395,274.6048 C341.9965,275.1568 342.3905,275.4038 342.7195,275.3518 C342.9565,275.3138 343.0755,274.5148 343.0755,272.9518 C343.0755,270.8488 342.9705,267.7008 342.7605,263.5028 C342.5505,259.3068 342.4435,256.1418 342.4435,254.0168 C342.4435,253.2748 342.6365,252.8798 343.0205,252.8298 C344.1175,252.6888 345.7725,252.4228 347.9825,252.0258 C350.1935,251.6298 351.8455,251.3498 352.9395,251.1948 C353.2865,251.1468 353.4595,251.4288 353.4595,252.0398" id="Fill-45"></path>
                <path d="M73.9483,151.4734 C75.6413,151.4504 76.8473,151.1734 77.5673,150.6384 C78.2863,150.1044 78.6463,149.3094 78.6463,148.2574 C78.6463,147.5214 78.3503,146.8834 77.7603,146.3464 C77.1693,145.8094 75.9743,145.1984 74.1793,144.5214 C70.3823,143.1754 67.0683,141.9204 64.2313,140.7404 C61.3953,139.5594 59.0493,138.2504 57.1893,136.8024 C55.3283,135.3544 53.9423,133.6434 53.0263,131.6574 C52.1113,129.6714 51.6533,127.2384 51.6533,124.3334 C51.6533,121.5774 52.0973,119.0624 52.9883,116.7654 C53.8783,114.4704 55.3283,112.4154 57.3423,110.5964 C59.3543,108.7754 62.0323,107.2264 65.3823,105.9664 C68.7303,104.7064 72.8663,103.7594 77.7993,103.1774 C82.2683,102.6504 86.4923,102.6364 90.4653,103.1604 C94.4383,103.6854 97.7493,104.6314 100.3893,105.9824 L100.3893,120.7084 C93.8663,121.1304 90.6133,121.3544 84.1253,121.8284 C84.1253,120.2874 83.7123,119.2674 82.8893,118.7774 C82.0663,118.2864 81.0623,118.0924 79.8803,118.1914 C78.1833,118.3334 76.9633,118.6614 76.2193,119.1684 C75.4743,119.6764 75.1023,120.4754 75.1023,121.5714 C75.1023,122.4584 75.5003,123.0784 76.2963,123.4374 C77.0923,123.7954 78.2853,124.1804 79.8803,124.5944 C82.8613,125.3884 85.6813,126.2694 88.3383,127.2374 C90.9933,128.2044 93.3303,129.4834 95.3463,131.0694 C97.3623,132.6554 98.9533,134.6384 100.1183,137.0074 C101.2823,139.3784 101.8653,142.3344 101.8653,145.8524 C101.8653,153.0014 99.6883,158.3454 95.3463,161.7624 C91.0053,165.1794 84.6533,166.7484 76.3353,166.5824 C71.6103,166.4884 67.0783,165.9734 62.7373,165.0814 C58.3953,164.1904 54.9333,163.1854 52.3403,162.0684 L52.3403,147.4224 C59.0523,147.2394 62.4213,147.1514 69.1813,146.9844 C69.1813,148.5284 69.4893,149.6674 70.1033,150.4044 C70.7183,151.1424 71.9973,151.4994 73.9483,151.4734" id="Fill-47"></path>
                <path d="M106.9961,101.2385 C117.3991,100.2595 127.8251,99.4155 138.2491,98.7045 L138.2491,112.9645 C136.3671,113.0635 135.4261,113.1145 133.5461,113.2175 L133.5461,152.1215 C135.4261,152.1095 136.3671,152.1035 138.2491,152.0915 L138.2491,166.3515 C127.8311,166.2435 117.4131,166.1165 106.9961,165.9685 L106.9961,152.3235 C108.8641,152.3075 109.7981,152.3005 111.6681,152.2845 L111.6681,114.5615 C109.7981,114.6875 108.8641,114.7525 106.9961,114.8835 L106.9961,101.2385 Z" id="Fill-49"></path>
                <path d="M188.669,96.134 C199.737,95.771 205.28,95.645 216.37,95.5 L216.37,110.537 C214.468,110.556 213.518,110.567 211.617,110.591 L211.617,166.824 C202.716,166.801 198.267,166.786 189.38,166.742 C181.728,153.221 174.024,139.732 166.245,126.283 L166.245,151.939 C168.137,151.931 169.084,151.926 170.978,151.919 L170.978,166.634 C159.933,166.558 154.42,166.512 143.428,166.404 L143.428,152.059 C145.313,152.048 146.255,152.042 148.141,152.031 L148.141,112.472 C146.255,112.561 145.313,112.607 143.428,112.7 L143.428,98.356 C153.154,97.707 162.896,97.172 172.634,96.752 C179.641,108.64 186.539,120.591 193.413,132.557 L193.413,110.906 C191.515,110.948 190.566,110.97 188.669,111.017 L188.669,96.134 Z" id="Fill-51"></path>
                <path d="M220.4883,95.4524 C240.3393,95.2284 260.2013,95.4714 280.0423,96.1114 C280.0423,104.9354 280.0433,109.3474 280.0433,118.1714 C274.6043,118.0594 271.8823,118.0114 266.4363,117.9324 L266.4363,110.7174 C264.4093,110.6824 263.3963,110.6674 261.3683,110.6384 L261.3683,151.8094 C263.5863,151.8134 264.6953,151.8154 266.9103,151.8204 L266.9103,166.7964 C255.8213,166.8274 244.7313,166.8464 233.6413,166.8524 L233.6413,151.7864 C235.8603,151.7854 236.9693,151.7864 239.1883,151.7864 L239.1883,110.4524 C237.1593,110.4474 236.1453,110.4464 234.1173,110.4474 L234.1173,117.7034 C228.6653,117.7054 225.9393,117.7144 220.4883,117.7494 L220.4883,95.4524 Z" id="Fill-53"></path>
                <path d="M43.129,172.5759 C53.764,173.0499 59.116,173.2699 69.873,173.6769 L69.873,186.3549 C68.029,186.2309 67.108,186.1679 65.267,186.0399 L65.267,232.9919 C56.647,231.4109 52.354,230.5689 43.813,228.7819 C36.622,216.9079 29.344,205.1029 21.667,193.5349 L21.667,212.8219 C23.471,213.1789 24.374,213.3549 26.182,213.7039 L26.182,224.9009 C15.634,222.4629 10.395,221.1649 0,218.4079 L0,208.2889 C1.782,208.6819 2.674,208.8779 4.461,209.2639 L4.461,180.9669 C2.674,180.7919 1.782,180.7029 0,180.5239 L0,170.4059 C11.019,171.0249 16.575,171.3159 27.765,171.8599 C34.65,181.7869 41.272,191.8949 47.692,202.1299 L47.692,184.7509 C45.865,184.6099 44.952,184.5389 43.129,184.3929 L43.129,172.5759 Z" id="Fill-55"></path>
                <path d="M74.4869,173.8474 C84.8029,174.2294 95.1229,174.5684 105.4419,174.8654 L105.4419,188.4744 C103.5749,188.3764 102.6429,188.3274 100.7789,188.2274 L100.7789,225.2734 C102.6429,225.4944 103.5749,225.6034 105.4419,225.8174 L105.4419,239.4274 C95.1019,238.0274 84.7659,236.4264 74.4869,234.6334 L74.4869,221.8194 C76.3339,222.0854 77.2589,222.2164 79.1089,222.4744 L79.1089,186.9574 C77.2589,186.8404 76.3339,186.7814 74.4869,186.6604 L74.4869,173.8474 Z" id="Fill-57"></path>
                <path d="M144.6856,216.03 C152.2256,216.512 156.0026,216.728 163.5676,217.108 L163.5676,240.211 C162.5166,240.851 161.2436,241.517 159.7466,242.205 C158.2506,242.891 156.5186,243.466 154.5516,243.922 C152.5846,244.378 150.3536,244.7 147.8676,244.882 C145.3796,245.063 142.5906,244.999 139.5056,244.686 C134.9026,244.219 130.7516,243.125 127.0496,241.451 C123.3466,239.778 120.1956,237.42 117.5956,234.417 C114.9946,231.413 112.9936,227.697 111.5906,223.278 C110.1886,218.858 109.4876,213.604 109.4876,207.477 C109.4876,201.407 110.1886,196.282 111.5906,192.054 C112.9936,187.829 114.9806,184.412 117.5556,181.798 C120.1306,179.184 123.2686,177.288 126.9716,176.123 C130.6716,174.959 134.7986,174.41 139.3486,174.5 C142.4866,174.562 145.2866,174.818 147.7486,175.274 C150.2106,175.729 152.4266,176.285 154.3936,176.941 C156.3606,177.596 158.0936,178.34 159.5886,179.169 C161.0856,179.998 162.4106,180.781 163.5676,181.517 L163.5676,203.818 C156.0026,203.523 152.2256,203.355 144.6856,202.98 L144.6856,196.675 C144.6856,194.396 144.2406,192.728 143.3516,191.675 C142.4626,190.622 141.1256,190.063 139.3486,189.996 C137.5696,189.928 136.2376,190.384 135.3496,191.357 C134.4606,192.333 134.0166,193.94 134.0166,196.19 L134.0166,222.314 C134.0166,224.562 134.4616,226.23 135.3496,227.315 C136.2376,228.401 137.5696,229.024 139.3486,229.173 C141.1256,229.321 142.4606,228.921 143.3516,227.969 C144.2406,227.02 144.6856,225.402 144.6856,223.125 L144.6856,216.03 Z" id="Fill-59"></path>
                <path d="M200.0586,232.6101 C201.8516,232.6641 203.1966,232.1691 204.0956,231.1261 C204.9926,230.0841 205.4406,228.3721 205.4406,225.9951 L205.4406,198.3871 C205.4406,196.0101 204.9926,194.2821 204.0956,193.2061 C203.1996,192.1291 201.8516,191.5791 200.0586,191.5541 C198.2646,191.5301 196.9196,192.0431 196.0236,193.0901 C195.1266,194.1401 194.6786,195.8441 194.6786,198.2121 L194.6786,225.7011 C194.6786,228.0671 195.1276,229.7971 196.0236,230.8881 C196.9196,231.9791 198.2646,232.5561 200.0586,232.6101 M230.3136,212.4541 C230.3136,219.1911 229.6016,224.9001 228.1756,229.5761 C226.7486,234.2521 224.7266,238.0481 222.1126,240.9551 C219.4986,243.8601 216.3166,245.9521 212.5676,247.2091 C208.8186,248.4661 204.6486,249.0181 200.0586,248.8501 C195.4696,248.6831 191.3026,247.8271 187.5616,246.3161 C183.8206,244.8041 180.6466,242.5211 178.0416,239.4941 C175.4356,236.4661 173.4236,232.6221 172.0036,227.9681 C170.5826,223.3161 169.8726,217.7121 169.8726,211.1351 C169.8726,204.6221 170.5826,199.0911 172.0036,194.5191 C173.4236,189.9501 175.4346,186.2451 178.0416,183.4041 C180.6466,180.5631 183.8206,178.4951 187.5616,177.2051 C191.3016,175.9161 195.4696,175.2831 200.0586,175.3151 C204.6486,175.3481 208.8196,176.0411 212.5676,177.4031 C216.3156,178.7651 219.4986,180.9191 222.1126,183.8661 C224.7276,186.8121 226.7486,190.6461 228.1756,195.3641 C229.6016,200.0841 230.3136,205.7801 230.3136,212.4541" id="Fill-61"></path>
                <path d="M235.0689,176.7243 C246.4749,176.7083 257.8809,176.6643 269.2869,176.5933 L269.2869,191.5563 C266.3749,191.5953 264.9179,191.6133 262.0039,191.6443 L262.0039,232.8073 C264.8539,232.7403 266.2799,232.7023 269.1289,232.6173 L269.1289,224.2233 C275.4279,224.0563 278.5769,223.9533 284.8669,223.7103 L284.8669,246.8903 C268.2849,247.7843 251.6729,248.1653 235.0689,248.1963 L235.0689,233.1293 C236.9709,233.1283 237.9219,233.1263 239.8239,233.1183 L239.8239,191.7853 C237.9219,191.7883 236.9709,191.7893 235.0689,191.7903 L235.0689,176.7243 Z" id="Fill-63"></path>
                <path d="M315.15,213.9568 C318.045,213.7998 319.492,213.7168 322.382,213.5448 C321.094,206.5978 320.45,203.1098 319.16,196.1118 C318.846,196.1248 318.689,196.1308 318.375,196.1438 C317.085,203.2468 316.44,206.8108 315.15,213.9568 L315.15,213.9568 Z M320.654,229.9208 C322.541,229.7788 323.483,229.7058 325.368,229.5568 C324.834,226.8328 324.567,225.4698 324.033,222.7378 C319.792,223.0368 317.669,223.1788 313.419,223.4418 C312.915,226.2718 312.663,227.6888 312.159,230.5258 C314.048,230.3978 314.993,230.3328 316.88,230.1968 L316.88,244.6808 C306.121,245.6048 300.726,245.9918 289.921,246.6128 L289.921,231.8098 C291.185,231.7488 291.817,231.7178 293.081,231.6538 C297.498,213.1478 301.938,194.6488 306.41,176.1578 C315.946,176.0098 325.482,175.8268 335.016,175.6098 C339.37,192.9238 343.774,210.2228 348.239,227.5068 C349.489,227.3818 350.114,227.3178 351.363,227.1888 L351.363,241.0728 C341.155,242.3508 330.902,243.4428 320.654,244.3478 L320.654,229.9208 Z" id="Fill-65"></path>
                <path d="M380.4302,208.906 C383.2772,208.62 384.6992,208.472 387.5382,208.171 C386.2732,201.954 385.6392,198.824 384.3722,192.521 C384.0642,192.543 383.9092,192.553 383.6002,192.576 C382.3322,199.068 381.6992,202.335 380.4302,208.906 L380.4302,208.906 Z M385.8402,223.089 C387.6942,222.839 388.6192,222.712 390.4702,222.453 C389.9462,220.033 389.6842,218.82 389.1592,216.385 C384.9932,216.906 382.9082,217.158 378.7272,217.643 C378.2312,220.254 377.9842,221.562 377.4882,224.185 C379.3472,223.948 380.2762,223.828 382.1312,223.584 L382.1312,236.75 C371.5532,238.42 366.2392,239.178 355.5742,240.544 L355.5742,226.748 C356.8222,226.615 357.4452,226.548 358.6922,226.411 C363.0122,209.135 367.3872,191.874 371.8292,174.629 C381.2002,174.342 390.5692,174.019 399.9362,173.662 C404.1392,188.832 408.4292,203.979 412.8862,219.078 C414.1092,218.881 414.7192,218.78 415.9412,218.58 L415.9412,230.748 C405.9512,232.74 395.8992,234.545 385.8402,236.156 L385.8402,223.089 Z" id="Fill-67"></path>
                <path d="M442.4146,212.8366 C444.0726,212.5246 445.2496,212.0706 445.9536,211.4856 C446.6556,210.9026 447.0066,210.1636 447.0066,209.2646 C447.0066,208.6356 446.7176,208.1386 446.1416,207.7676 C445.5636,207.3966 444.3976,207.0486 442.6406,206.7046 C438.9216,206.0526 435.6586,205.3126 432.8566,204.5236 C430.0546,203.7346 427.7266,202.7046 425.8776,201.4536 C424.0286,200.2016 422.6466,198.6076 421.7326,196.6906 C420.8196,194.7726 420.3626,192.3576 420.3626,189.4746 C420.3626,186.7386 420.8076,184.2436 421.6946,182.0156 C422.5826,179.7876 424.0286,177.8556 426.0296,176.2306 C428.0306,174.6056 430.6866,173.3306 433.9916,172.4016 C437.2966,171.4716 441.3646,170.9156 446.1796,170.6916 C450.5426,170.4886 454.6396,170.6856 458.4756,171.2316 C462.3106,171.7756 465.4876,172.5636 468.0146,173.5886 L468.0146,184.6996 C461.7716,185.4306 458.6356,185.7826 452.3376,186.4616 C452.3376,185.1836 451.9366,184.3546 451.1376,183.9676 C450.3366,183.5816 449.3606,183.4396 448.2096,183.5466 C446.5556,183.7006 445.3626,184.0026 444.6356,184.4546 C443.9086,184.9076 443.5446,185.6126 443.5446,186.5686 C443.5446,187.3426 443.9326,187.8706 444.7116,188.1496 C445.4886,188.4296 446.6556,188.7106 448.2096,188.9816 C451.1136,189.5036 453.8496,190.0546 456.4196,190.6366 C458.9876,191.2196 461.2396,192.0246 463.1766,193.0516 C465.1136,194.0776 466.6406,195.4016 467.7546,197.0356 C468.8686,198.6696 469.4256,200.7826 469.4256,203.4146 C469.4256,208.7626 467.3506,213.2026 463.1766,216.9026 C459.0026,220.6046 452.8796,223.5806 444.7496,225.5016 C440.1306,226.5936 435.6726,227.2416 431.3796,227.4126 C427.0856,227.5836 423.6376,227.3646 421.0486,226.7976 L421.0486,212.3126 C427.7496,211.2756 431.0876,210.7336 437.7356,209.6036 C437.7356,210.9936 438.0386,211.9746 438.6426,212.5336 C439.2456,213.0936 440.5046,213.1956 442.4146,212.8366" id="Fill-69"></path>
            </g>
        </g>
    </g>
</svg>