<?xml version="1.0" encoding="UTF-8"?>
<svg width="731px" height="702px" viewBox="0 0 415 440" version="1.1" xmlns="http://www.w3.org/2000/svg" xmlns:xlink="http://www.w3.org/1999/xlink">
    <!-- Generator: Sketch 53.2 (72643) - https://sketchapp.com -->
    <title>Sinterklaas</title>
    <g id="Page-1" stroke="none" stroke-width="1" fill="none" fill-rule="evenodd">
        <g id="sinterklaas" fill-rule="nonzero">
            <path d="M335.05,232.6 C335.05,232.6 350.37,210.64 366.2,217.96 C382.03,225.28 383.73,246.39 382.54,257.45 C381.35,268.51 398.2,280.94 404.16,280.43 C404.16,280.43 397.86,286.22 391.39,283.15 C391.39,283.15 392.58,287.92 405.86,292.17 C405.86,292.17 413.86,297.45 413.35,303.91 C413.35,303.91 403.82,297.78 397.35,299.82 C397.35,299.82 403.82,305.1 407.9,312.42 C411.99,319.74 411.47,320.59 414.71,321.44 C414.71,321.44 385.6,320.42 376.41,298.12 C376.41,298.12 371.47,307.82 380.67,316.16 C380.67,316.16 360.76,314.97 366.71,276.16 C366.71,276.16 360.24,280.76 360.92,290.8 C360.92,290.8 351.73,286.37 357.01,261.35 C362.29,236.33 353.78,230.88 340.5,241.44 C327.22,252 335.05,232.6 335.05,232.6 Z" id="Path" fill="#969696"></path>
            <path d="M289.34,341.32 C287.47,335.7 254.62,319.7 254.62,319.7 L236.58,326 C236.58,326 250.2,342.34 262.62,345.23 C262.62,345.23 270.96,345.91 263.47,361.91 C255.98,377.91 249,395.44 246.62,398.17 C244.24,400.89 239.81,408.55 236.58,415.53 C233.35,422.51 232.84,422.51 230.62,424.55 C228.4,426.59 225.68,431.19 226.19,433.23 C226.7,435.27 247.47,434.93 249.51,433.23 C251.55,431.53 251.04,427.61 251.38,423.7 C251.72,419.79 256.66,409.23 260.4,403.79 C264.14,398.34 262.1,396.13 263.12,394.6 C264.14,393.07 267.72,393.41 270.61,388.3 C273.5,383.19 283.89,366.85 286.78,358.85 C289.67,350.85 291.21,346.94 289.34,341.32 Z" id="Path" fill="#E0E1E2"></path>
            <path d="M115.89,296.61 C115.89,296.61 81.34,298.65 76.74,299.5 C72.14,300.35 64.65,297.12 63.97,306.14 C63.29,315.16 65.67,333.37 67.2,336.78 C68.73,340.18 70.26,349.89 70.43,354.14 C70.6,358.4 71.45,365.03 76.73,364.52 C82.01,364.01 89.67,360.95 92.22,361.8 C94.77,362.65 100.05,359.59 101.07,357.89 C102.09,356.19 102.09,343.59 101.07,340.7 C100.05,337.81 99.2,336.96 97.67,337.47 C96.14,337.98 84.56,347 82.18,348.53 C79.8,350.06 82.01,339.85 81.5,338.32 C80.99,336.79 81.67,337.13 80.65,335.94 C79.63,334.75 76.91,321.81 80.31,319.94 C83.71,318.07 92.22,316.71 105.84,321.64 C119.46,326.58 134.27,329.64 136.31,329.64 C138.35,329.63 115.89,296.61 115.89,296.61 Z" id="Path" fill="#E0E1E2"></path>
            <path d="M333.24,311.38 C352.98,283.98 349.24,270.87 345.67,252.49 C342.1,234.11 322.35,228.32 322.35,228.32 L255.63,242.96 C255.63,242.96 163.2,213 158.61,212.49 C154.01,211.98 131.89,187.3 131.89,187.3 L109.76,164.66 C109.76,164.66 91.04,136.4 86.27,130.62 C81.5,124.83 59.72,126.36 59.72,126.36 C59.72,126.36 50.7,130.27 46.61,136.91 C42.52,143.55 30.78,155.12 26.18,162.27 C21.58,169.42 7.97,177.59 7.97,177.59 C-6.33,194.78 4.57,200.57 4.74,201.42 C4.74,201.42 11.55,209.08 19.38,209.08 C27.21,209.08 27.21,205.68 36.4,199.55 C45.59,193.42 71.29,193.59 71.29,193.59 C75.38,198.36 98.69,245.16 99.72,272.91 C100.74,300.65 112.32,310.02 114.87,312.4 C117.42,314.78 125.59,336.4 127.81,343.38 C130.02,350.36 124.24,357.17 131.55,365.17 C132.87,366.61 134.01,368.46 134.99,370.53 C136.31,375.27 137.74,380.54 137.58,382.57 C137.27,386.56 139.75,399.75 137.59,404.66 C135.43,409.57 133.7,412.02 132.88,414.48 C132.06,416.94 124.7,423.99 123.47,426.45 C122.24,428.9 125.62,430.64 132.67,430.54 C139.73,430.44 149.24,433.71 150.77,430.54 C152.3,427.37 150.46,422.46 150.77,417.25 C151.08,412.03 153.84,404.67 155.68,401.91 C156.33,400.94 156.21,398.89 155.72,396.48 C155.8,396.31 155.81,396.1 155.71,395.83 C154.35,392.26 152.65,380.85 152.48,370.98 C152.31,361.11 155.88,361.28 154.01,347.32 C152.14,333.36 151.29,330.64 151.29,330.64 C204.74,346.81 266.86,327.24 266.86,327.24 C272.14,338.13 293.92,351.41 301.75,355.15 C309.58,358.89 310.43,365.02 310.43,373.53 C310.43,382.04 301.41,405.7 301.41,405.7 L301.07,411.66 L291.2,428.68 L306.86,435.15 C306.86,435.15 308.22,431.58 308.56,431.06 C308.9,430.55 313.67,416.76 313.67,416.76 C313.67,416.76 317.03,412.28 318.27,409.61 C324.22,396.73 327.8,383.74 334.78,367.74 C341.76,351.74 337.16,351.23 334.61,347.14 C332.05,343.04 313.5,338.78 333.24,311.38 Z" id="Path" fill="#FFFFFF"></path>
            <path d="M212.52,297.57 C212.52,297.57 210.37,313.26 209.98,313.38 C209.59,313.5 219.78,317.02 219.78,317.02 L223.36,298.92 L212.52,297.57 Z" id="Path" fill="#B487BC"></path>
            <path d="M127.42,98.48 C127.42,98.48 126.14,90.05 124.61,86.1 C123.08,82.14 122.44,79.21 122.06,76.65 C121.68,74.1 118.36,75.25 118.36,78.82 C118.36,82.39 120.15,85.1 119.51,86.88 C118.87,88.65 118.87,87.4 117.6,86.88 C116.32,86.36 107.51,71.8 105.73,71.04 C103.94,70.27 99.86,69.13 102.92,74.87 C105.98,80.61 111.86,84.32 110.96,85.85 C110.06,87.38 106.36,84.19 104.96,82.28 C103.56,80.37 97.81,73.85 94.49,75.51 C91.17,77.17 97.81,81.77 98.83,82.91 C99.85,84.06 105.85,89.29 105.6,90.19 C105.34,91.08 102.41,89.17 101.77,88.79 C101.13,88.41 92.07,81.9 89.39,82.66 C86.71,83.43 91.05,86.75 93.6,87.89 C96.15,89.04 101.39,92.61 101.64,93.51 C101.9,94.4 101.38,94.53 100.75,94.91 C100.11,95.29 90.92,91.97 89.52,92.87 C88.12,93.76 88.88,95.93 92.2,96.83 C95.52,97.72 101.65,99.51 102.41,100.79 C103.17,102.07 105.27,103.6 107.99,104.75 C110.71,105.9 113.52,105.64 114.92,106.28 C116.32,106.92 117.35,109.22 117.98,110.37 C118.61,111.52 127.42,98.48 127.42,98.48 Z" id="Path" fill="#B487BC"></path>
            <path d="M157.63,207.23 C157.63,207.23 132.78,243.66 138.23,281.1 C138.23,281.1 141.97,292.33 154.91,288.93 C154.91,288.93 164.38,303.57 182.45,296.76 C182.45,296.76 194.74,305.95 207.33,296.76 C207.33,296.76 222.65,305.95 234.22,295.4 C234.22,295.4 252.94,299.83 262.13,287.57 C262.13,287.57 274.73,287.91 279.83,277.7 C279.83,277.7 284.26,279.74 289.7,271.23 C289.7,271.23 298.55,267.49 295.49,254.04 C292.43,240.59 239.66,266.81 239.66,266.81 L157.63,207.23 Z" id="Path" fill="#E0E1E2"></path>
            <path d="M158.92,175.57 C158.92,175.57 154.35,173.06 152.8,175.57 C151.24,178.08 148.5,222.6 156.27,226.87 C156.27,226.87 159.7,227.93 164.71,227.66 C169.25,227.42 158.92,175.57 158.92,175.57 Z" id="Path" fill="#F1CB18"></path>
            <path d="M189.56,173.19 L158.79,175.57 C158.79,175.57 149.94,214.72 164.58,227.66 C164.58,227.66 192.84,232.09 216.67,214.04 C216.67,214.04 182.97,196.44 181.95,196.39 C180.92,196.34 189.56,173.19 189.56,173.19 Z" id="Path" fill="#DC1F26"></path>
            <path d="M186.75,229.02 C186.75,229.02 191.18,282.81 195.6,286.89 C195.6,286.89 248.03,307.32 305.9,260.34 C305.9,260.34 330.75,238.89 318.16,217.11 C318.16,217.11 302.5,231.41 267.44,175.24 L177.91,177.28 L186.75,229.02 Z" id="Path" fill="#DC1F26"></path>
            <path d="M156.71,147.23 C156.71,147.23 149.8,173.4 149.8,177.55 C149.8,181.7 186.53,172.4 186.53,172.4 L164.77,165.09 L156.71,147.23 Z" id="Path" fill="#DC1F26"></path>
            <path d="M180.18,167.16 L176.83,171.83 C176.83,171.83 192.43,198.72 224,194.64 C255.57,190.56 278.05,171.83 280.09,169.79 C282.13,167.75 282.31,166.24 277.11,165.46 C271.93,164.68 180.18,167.16 180.18,167.16 Z" id="Path" fill="#F1CB18"></path>
            <path d="M148.18,85.8 C148.18,85.8 146.3,83.65 146.3,81.95 C146.3,80.25 116.34,94.55 111.58,126.89 L118.79,134.35 L148.18,85.8 Z" id="Path" fill="#F1CB18"></path>
            <path d="M148.18,85.8 C148.18,85.8 125.97,91.93 116.27,132.01 C116.27,132.01 152.27,166.22 164.01,163.67 L167.07,107.5 C167.08,107.5 152.78,100.61 148.18,85.8 Z" id="Path" fill="#DC1F26"></path>
            <path d="M240.61,116.18 C240.61,116.18 258.23,144.01 261.29,151.41 C264.35,158.81 277.12,165.45 277.12,165.45 C277.12,165.45 243.42,189.19 219.67,188.43 C195.93,187.66 180.86,171.32 177.29,161.62 C173.72,151.92 204.35,135.58 204.35,135.58 L240.61,116.18 Z" id="Path" fill="#DC1F26"></path>
            <path d="M168.61,69.45 C168.75,73.05 170.07,81.85 161.26,72.79 C160.62,72.41 155.16,75.74 158.73,83.02 C162.3,90.3 163.81,86.45 163.81,86.45 C164.96,85.94 163.07,92.44 158.45,92.32 C153,92.18 153.73,88.11 153.73,86.45 C153.73,86.45 149.26,95.9 154.37,97.56 C159.48,99.22 161.14,98.45 163.05,97.56 C164.96,96.67 173.65,87.47 173.65,87.47 L174.54,81.34 C174.54,81.34 176.97,65.64 176.2,65.38 C175.43,65.12 168.61,69.45 168.61,69.45 Z" id="Path" fill="#E0E1E2"></path>
            <path d="M224.19,69.23 C224.19,69.23 224.79,74.61 224.79,73.46 C224.79,72.31 228.51,70.5 227.62,75.35 C226.73,80.2 234.35,81.67 236.52,80.01 C238.69,78.35 239.84,77.33 239.46,75.54 C239.46,75.54 244.44,77.97 243.16,81.92 C241.88,85.88 242.39,84.98 237.67,87.79 C237.67,87.79 234.86,92.13 239.58,94.68 C244.3,97.23 247.37,94.04 247.88,92.13 C247.88,92.13 251.58,97.11 248.77,101.07 C245.96,105.03 244.94,107.45 241.11,107.84 C241.11,107.84 247.56,112.69 249.82,111.67 C249.82,111.67 243.99,119.76 239.9,120.65 C239.9,120.65 234.68,120.29 232.05,119.9 C229.42,119.51 220.68,80.26 220.42,80.9 C220.16,81.55 224.19,69.23 224.19,69.23 Z" id="Path" fill="#E0E1E2"></path>
            <path d="M174.56,72.25 L186.3,64.25 L190.21,70.51 L200.59,66.13 L205.7,70.51 L212.85,64.25 C212.85,64.25 223.23,72.25 223.74,72.25 C224.25,72.25 223.91,85.02 223.4,85.53 C222.89,86.04 215.74,96.76 215.74,96.76 L190.12,96.93 L178.02,90.63 L174.55,81.95 L174.55,72.25 L174.56,72.25 Z" id="Path" fill="#FED0A3"></path>
            <path d="M207.32,10.24 C207.32,10.24 210.64,4.88 211.66,3.6 C212.68,2.32 237.19,45.73 236.17,49.05 C235.15,52.37 207.32,10.24 207.32,10.24 Z" id="Path" fill="#EE3227"></path>
            <path d="M172.18,67.49 L168.61,47.32 C168.61,47.32 185.97,16.43 201.29,0.85 C201.29,0.85 236.52,44.51 237.8,49.87 C239.08,55.23 231.67,66.47 229.37,69.53 C227.07,72.6 172.18,67.49 172.18,67.49 Z" id="Path" fill="#F1CB18"></path>
            <path d="M178.05,43.49 C177.37,42.87 197.71,13.11 198.99,12.09 C198.99,12.09 197.88,41.28 197.71,41.96 C197.54,42.64 178.99,44.34 178.05,43.49 Z" id="Path" fill="#EE3227"></path>
            <path d="M203.28,43.48 C203.35,42.46 202.51,11.32 203.28,10.3 C204.05,9.28 230.12,44.52 230.63,46.3 C231.14,48.09 203.18,44.75 203.28,43.48 Z" id="Path" fill="#EE3227"></path>
            <path d="M177.23,48.08 C178.59,47.85 198.17,45.92 198.68,46.36 C199.19,46.8 198.79,63.27 197.26,65.32 C195.73,67.36 180.81,64.93 180.81,64.68 C180.8,64.43 175.35,48.4 177.23,48.08 Z" id="Path" fill="#EE3227"></path>
            <path d="M204.38,48.15 C204.38,48.15 204.18,60.91 204.18,62.21 C204.18,69.7 224.96,68.18 226.31,65.65 C227.22,63.93 231.07,54.44 229.13,52.43 C227.18,50.41 211.25,50.38 204.38,48.15 Z" id="Path" fill="#EE3227"></path>
            <path d="M194.63,63 C194.63,63 191.31,53.04 177.27,63 C163.23,72.96 165.53,68.98 161.95,68.16 C158.37,67.34 174.46,82.66 180.08,75.77 C185.7,68.88 185.7,68.54 185.7,70.88 C185.7,73.22 185.96,76.54 183.15,77.56 C180.34,78.58 192.34,77.73 194.64,70.88 C194.64,70.88 205.62,80.32 212.51,77.92 C212.51,77.92 208.68,73.9 210.47,70.88 C210.47,70.88 225.28,84.2 237.53,76.79 C237.53,76.79 227.06,69.39 223.23,63.26 C219.4,57.13 199.99,52.02 194.63,63 Z" id="Path" fill="#FFFFFF"></path>
            <path d="M117.84,126.17 C117.8,126.32 117.73,126.57 117.64,126.89 C117.49,127.43 117.29,128.17 117.1,128.91 C116.69,130.44 116.27,132.01 116.27,132.01 C116.27,132.01 132.22,146.12 136.23,149.19 C140.24,152.26 150.72,160.25 153.28,160.72 C153.28,160.72 155.51,161.67 157.12,161.64 C158.73,161.61 157.12,157.78 157.12,157.78" id="Path" fill="#B22024"></path>
            <path d="M177.35,69.33 C176.58,70.3 176.58,83.58 177.35,85.36 C177.35,85.36 187.33,84.34 186.93,86.38 C186.53,88.42 197.77,89.44 197.77,89.44 C197.77,89.44 213.09,83.06 217.17,85.87 C217.17,85.87 223.04,81.78 220.23,70.81 C217.42,59.83 225.85,72.04 225.85,72.04 C225.85,72.04 230.7,82.3 225.85,88.42 C225.85,88.42 234.79,103.48 235.3,111.91 C235.81,120.34 244.24,120.34 247.3,117.78 C250.36,115.23 240.92,126.21 233.26,121.87 C233.26,121.87 240.15,133.61 234.03,140 C234.03,140 235.31,133.62 228.16,132.09 C228.16,132.09 227.9,143.32 216.42,149.45 C204.93,155.58 210.57,161.45 212.34,163.49 C212.34,163.49 201.86,154.55 206.46,146.64 C206.46,146.64 205.44,154.3 196.76,157.62 C188.08,160.94 187.59,162.22 186.94,165.02 C186.94,165.02 182.97,161.19 185.27,156.59 C185.27,156.59 175.18,175.48 176.78,180.08 C176.78,180.08 161.52,169.36 163.82,162.21 C163.82,162.21 161.31,166.3 163.58,171.15 C163.58,171.15 151.05,161.96 157.94,143.06 C157.94,143.06 153.34,145.36 151.56,149.7 C151.56,149.7 147.73,130.81 161.52,118.55 C161.52,118.55 156.67,119.84 154.12,123.15 C154.12,123.15 154.38,112.93 161.52,108.08 C161.52,108.08 153.35,107.57 152.58,102.46 C152.58,102.46 153.86,103.74 156.92,103.48 C156.92,103.48 162.28,102.46 165.09,92.76 C167.9,83.06 171.47,86.38 172.49,83.57 C173.51,80.76 174.28,73.21 173.26,69.32 C172.24,65.43 177.35,69.33 177.35,69.33 Z" id="Path" fill="#FFFFFF"></path>
            <path d="M193.46,82.3 C193.12,82.81 194.48,89.62 190.57,92.51 C186.66,95.4 197.04,101.7 200.44,95.91 C203.84,90.12 202.14,90.63 200.44,87.57 C198.74,84.51 198.06,78.21 193.29,81.44" id="Path" fill="#F79B76"></path>
            <path d="M186.4,226.95 C186.4,226.95 208.04,225.27 216.79,221.95 C216.79,221.95 198.21,231.02 186.98,231.72 L186.4,226.95 Z" id="Path" fill="#B22024"></path>
            <path d="M63.33,140.91 C63.07,140.14 62.05,137.97 62.18,136.82 C62.31,135.67 52.86,127.88 56.31,106.69 C56.31,106.69 71.37,114.99 73.42,134.39 C75.46,153.79 72.65,140.65 74.57,144.35 C76.48,148.06 63.33,140.91 63.33,140.91 Z" id="Path" fill="#FFFFFF"></path>
            <path d="M42.62,118.12 C42.62,118.12 41.47,128.08 43.39,134.97 C45.31,141.86 54.89,128.2 54.89,128.2 C54.89,128.2 49.13,119.02 42.62,118.12 Z" id="Path" fill="#FFFFFF"></path>
            <path d="M58.37,126.17 C57.99,126.17 53.9,127.96 51.6,130.26 C49.3,132.56 42.79,129.62 41.39,137.15 C39.99,144.68 45.99,150.43 52.5,153.11 C52.5,153.11 48.46,149.28 49.78,144.56 C49.78,144.56 56.71,151.45 59.78,150.94 C59.78,150.94 54.55,147.37 55.95,144.43 C55.95,144.43 65.01,150.05 68.59,149.66 C68.59,149.66 60.04,135.23 60.29,132.94 C60.54,130.64 58.37,126.17 58.37,126.17 Z" id="Path" fill="#969696"></path>
            <path d="M69.71,122.58 C69.71,122.58 80.97,121.34 91.5,135.66 C103.76,152.32 104.35,154.78 111.59,163.81 C118.82,172.83 139.92,191.26 141.54,197.05 C143.16,202.84 144.09,213.31 139.33,218.07 C139.33,218.07 139.59,205.81 136.61,202.92 C136.61,202.92 136.44,210.24 133.46,213.05 C133.46,213.05 135.33,203.18 131.67,199.09 C131.67,199.09 126.22,195.86 127.84,202.75 C127.84,202.75 119.75,195.6 120.01,189.98 C120.01,189.98 120.69,201.04 122.48,203.51 C122.48,203.51 107.59,185.38 108.35,179.25 C108.35,179.25 104.56,181.38 106.28,187.59 C106.28,187.59 98.3,177.04 101.62,170.57 C101.62,170.57 98.05,169.29 97.62,173.12 C97.19,172.69 96.09,168.01 97.71,165.29 C97.71,165.29 93.62,157.29 93.54,166.82 C93.45,176.35 93.11,169.03 93.63,175.16 C93.63,175.16 88.78,163.93 90.4,156.69 C90.4,156.69 87.25,167.92 87.85,171.92 C87.85,171.92 81.47,165.79 84.19,148.26 C84.19,148.26 80.87,152.69 80.7,159.83 C80.7,159.83 71.51,146.04 72.27,140.51 C73.03,135 74.39,132.54 69.71,122.58 Z" id="Path" fill="#969696"></path>
            <path d="M136.55,194.38 C136.55,194.38 126.08,197.83 126.34,191.95 C126.34,191.95 125.82,192.08 131.44,190.04 C137.06,188 135.4,185.57 140,184.3 C144.6,183.02 147.53,182.77 149.96,183.41 C152.39,184.05 151.87,193.5 151.87,193.5 L153.02,210.35 C153.02,210.35 147.79,212.65 147.15,210.35 C147.15,210.35 142.81,211.5 141.79,209.2 C141.79,209.2 138.22,210.73 136.43,208.05 C136.43,208.05 128.9,209.2 130.43,204.6 C131.96,200 134.38,196.17 136.55,194.38 Z" id="Path" fill="#B487BC"></path>
            <path d="M184.97,319.5 C184.97,319.5 177.88,328.9 192.18,328.36 C206.48,327.82 210.19,326.7 211.34,326.2 L209.91,330.28 L217.31,331.23 C217.31,331.23 219.96,317.97 219.97,316.44 C219.98,314.91 210.42,313.31 209.65,313.05 C208.9,312.78 188.83,316.08 184.97,319.5 Z" id="Path" fill="#399199"></path>
            <path d="M309.34,386.38 C309.34,386.38 301.43,408.85 296.06,414.72 C290.7,420.59 288.4,425.19 286.87,427.74 C285.34,430.29 280.74,434.63 281.51,436.93 C282.28,439.23 301.94,441.02 305.25,438.72 C308.57,436.42 307.55,432.08 309.34,427.23 C311.13,422.38 312.4,416.25 316.74,410.63 C321.08,405.01 321.59,395.31 324.91,388.42 C328.23,381.53 309.34,386.38 309.34,386.38 Z" id="Path" fill="#FFFFFF"></path>
        </g>
    </g>
</svg>