<?xml version="1.0" encoding="UTF-8"?>
<svg width="825px" height="175px" viewBox="0 0 825 175" version="1.1" xmlns="http://www.w3.org/2000/svg" xmlns:xlink="http://www.w3.org/1999/xlink">
        <g id="Page-1" stroke="none" fill="#39919A" fill-rule="nonzero" transform="translate(0.000000, 2.000000)">
                <path d="M793.52,101.29 L792.66,101.29 L792.66,95.45 L791.05,95.45 C791.05,95.45 791.05,90.03 791.05,89.62 C791.05,90.2 792.22,89.43 792.41,89.62 C792.6,89.81 792.41,86.32 792.41,86.32 L755.68,86.32 L731.96,60.08 L728.66,60.08 L712.92,86.32 L693.87,87.29 L693.87,42.97 L695.23,42.97 L695.04,37.92 L691.54,37.92 L691.54,31.12 L689.59,31.12 L689.59,37.14 L687.45,37.14 L687.45,31.12 L685.31,31.12 L685.31,37.34 L683.36,37.34 L683.36,31.12 L680.25,31.12 L680.25,37.14 L676.95,37.14 L676.95,42.39 L678.31,42.39 L678.31,87.68 L673.26,87.68 L673.26,103.42 L642.55,103.42 L626.03,75.44 L623.89,75.05 L623.89,63.58 C623.89,63.58 628.16,62.47 624.66,58.94 C621.16,55.42 615.72,54.05 611.44,54.05 C607.16,54.05 599.78,56.44 597.83,58.94 C595.89,61.44 598.81,63.77 598.81,63.77 L598.81,75.05 L579.37,101.1 L573.74,101.1 L573.74,97.99 L571.6,97.99 L571.6,100.9 L563.44,100.9 C563.44,100.9 563.44,91.63 563.44,91.18 C563.44,91.76 565.58,91.18 565.58,91.18 L565.58,88.85 L563.44,88.85 L563.44,64.17 L564.6,64.17 L564.6,61.84 L559.55,50.95 L559.55,36.75 L557.22,36.75 L557.22,54.06 L554.98,56.3 L551.78,56.3 L551.78,58.95 L552.75,58.95 L552.75,67.87 L551.78,67.87 L551.78,70.2 L552.75,70.2 L552.75,97.6 L551.78,97.6 L551.78,100.13 L540.7,100.13 L540.7,97.41 L536.62,97.41 L536.62,103.82 L538.37,103.82 L538.37,108.87 L533.12,108.87 C533.12,108.87 533.12,106.18 533.12,105.76 C533.12,106.34 526.7,105.76 526.7,105.76 L489.18,46.28 L489.18,25.49 L491.9,22.77 C491.9,22.77 493.84,21.21 491.12,18.88 C488.4,16.55 482.57,12.86 478.1,12.86 C473.63,12.86 467.61,16.94 465.86,18.3 C464.11,19.66 465.86,21.41 465.86,21.79 C465.86,22.18 467.42,25.09 467.42,25.09 L467.42,46.09 L437.88,89.82 L435.84,87.78 L435.84,77.58 L427.19,77.58 L427.19,88.66 L421.56,94.29 L421.56,88.66 L422.72,88.66 L422.72,87.1 L412.4,87.1 L412.4,90.01 L397.05,75.04 L398.51,73.58 L398.51,70.57 L391.41,70.57 L386.26,65.42 L378.78,49.19 L378.78,29.56 L382.47,25.86 C382.47,25.86 383.74,21.68 381.89,19.83 C380.04,17.98 368.1,10.69 359.54,10.69 C350.98,10.69 338.35,19.44 338.35,19.44 C338.35,19.44 336.79,23.32 338.35,24.88 C339.9,26.43 342.04,27.79 342.04,27.79 L342.04,47.42 L335.82,56.17 L332.62,52.97 L332.62,40.23 L327.08,35.95 L327.08,34.2 L329.61,34.2 L326.7,31.29 L322.03,31.29 L322.03,22.73 L320.67,22.73 L320.67,21.56 L324.36,21.56 L324.36,19.81 L319.51,18.65 L312.3,18.65 L312.3,31.48 L302.19,31.48 L302.19,23.32 L300.45,23.32 L300.45,46.25 L298.7,47.42 L298.7,44.51 L297.73,43.15 L295.78,43.15 L295.78,18.47 L257.87,18.47 C257.87,18.47 251.26,0 232.6,0 C213.94,0 208.88,18.08 208.88,18.08 L171.95,18.08 L171.95,23.52 L173.51,23.52 L173.51,49.18 L166.51,49.18 L166.51,107.69 L122.97,87.87 L116.36,80.29 L116.36,70.77 L117.92,70.77 L117.92,68.05 L104.12,68.05 L104.12,70.38 L105.68,70.38 L105.68,78.74 L69.33,120.33 L67.19,120.33 L67.19,115.86 L62.72,115.86 L62.72,119.94 L59.23,123.43 L39.6,115.27 L0,49.84 L0,173.55 L825,173.55 L825,49.84 L793.52,101.29 Z" id="Path"></path>
        </g>
</svg>